<svg width="424" height="320" viewBox="0 0 424 320" fill="none" xmlns="http://www.w3.org/2000/svg">
<line x1="112.3" y1="1.36707e-08" x2="112.3" y2="320" stroke="#BABABA" stroke-width="0.6"/>
<line x1="212.3" y1="1.36707e-08" x2="212.3" y2="320" stroke="#BABABA" stroke-width="0.6"/>
<line x1="332.3" y1="1.36707e-08" x2="332.3" y2="320" stroke="#BABABA" stroke-width="0.6"/>
<line x1="72.2998" y1="1.36707e-08" x2="72.2997" y2="320" stroke="#BABABA" stroke-width="0.6"/>
<line x1="172.3" y1="1.36707e-08" x2="172.3" y2="320" stroke="#BABABA" stroke-width="0.6"/>
<line x1="292.3" y1="1.36707e-08" x2="292.3" y2="320" stroke="#BABABA" stroke-width="0.6"/>
<line x1="132.3" y1="1.36707e-08" x2="132.3" y2="320" stroke="#BABABA" stroke-width="0.6"/>
<line x1="232.3" y1="1.36707e-08" x2="232.3" y2="320" stroke="#BABABA" stroke-width="0.6"/>
<line x1="352.3" y1="1.36707e-08" x2="352.3" y2="320" stroke="#BABABA" stroke-width="0.6"/>
<line x1="92.2998" y1="1.36707e-08" x2="92.2997" y2="320" stroke="#BABABA" stroke-width="0.6"/>
<line x1="192.3" y1="1.36707e-08" x2="192.3" y2="320" stroke="#BABABA" stroke-width="0.6"/>
<line x1="312.3" y1="1.36707e-08" x2="312.3" y2="320" stroke="#BABABA" stroke-width="0.6"/>
<line x1="152.3" y1="1.36707e-08" x2="152.3" y2="320" stroke="#BABABA" stroke-width="0.6"/>
<line x1="272.3" y1="1.36707e-08" x2="272.3" y2="320" stroke="#BABABA" stroke-width="0.6"/>
<line x1="252.3" y1="1.36707e-08" x2="252.3" y2="320" stroke="#BABABA" stroke-width="0.6"/>
<line x1="372" y1="60.3" x2="52" y2="60.3" stroke="#BABABA" stroke-width="0.6"/>
<line x1="372" y1="160.3" x2="52" y2="160.3" stroke="#BABABA" stroke-width="0.6"/>
<line x1="372" y1="280.3" x2="52" y2="280.3" stroke="#BABABA" stroke-width="0.6"/>
<line x1="372" y1="20.3" x2="52" y2="20.3" stroke="#BABABA" stroke-width="0.6"/>
<line x1="372" y1="120.3" x2="52" y2="120.3" stroke="#BABABA" stroke-width="0.6"/>
<line x1="372" y1="240.3" x2="52" y2="240.3" stroke="#BABABA" stroke-width="0.6"/>
<line x1="372" y1="80.3" x2="52" y2="80.3" stroke="#BABABA" stroke-width="0.6"/>
<line x1="372" y1="180.3" x2="52" y2="180.3" stroke="#BABABA" stroke-width="0.6"/>
<line x1="372" y1="300.3" x2="52" y2="300.3" stroke="#BABABA" stroke-width="0.6"/>
<line x1="372" y1="40.3" x2="52" y2="40.3" stroke="#BABABA" stroke-width="0.6"/>
<line x1="372" y1="140.3" x2="52" y2="140.3" stroke="#BABABA" stroke-width="0.6"/>
<line x1="372" y1="260.3" x2="52" y2="260.3" stroke="#BABABA" stroke-width="0.6"/>
<line x1="372" y1="100.3" x2="52" y2="100.3" stroke="#BABABA" stroke-width="0.6"/>
<line x1="372" y1="220.3" x2="52" y2="220.3" stroke="#BABABA" stroke-width="0.6"/>
<line x1="372" y1="200.3" x2="52" y2="200.3" stroke="#BABABA" stroke-width="0.6"/>
<rect x="52.3" y="0.3" width="319.4" height="319.4" stroke="#BABABA" stroke-width="0.6"/>
<line x1="52.4" y1="225" x2="52.4" y2="311" stroke="#0272D5" stroke-width="0.8" stroke-dasharray="3 2"/>
<line x1="30" y1="288.6" x2="118" y2="288.6" stroke="#0272D5" stroke-width="0.8" stroke-dasharray="3 2"/>
<circle cx="78.5" cy="262.5" r="26.1" stroke="#0272D5" stroke-width="0.8"/>
<path fill-rule="evenodd" clip-rule="evenodd" d="M203.38 29.7547C208.314 25.6697 215.454 25.6667 220.392 29.7476L340.468 128.996C343.535 131.531 345.311 135.303 345.311 139.282V288.165H372V139.282C372 127.344 366.673 116.03 357.471 108.424L237.395 9.17606C222.583 -3.06669 201.161 -3.05776 186.359 9.19733L66.5028 108.432C57.3169 116.038 52 127.342 52 139.268V288.165H78.6889V139.268C78.6889 135.293 80.4612 131.525 83.5232 128.989L203.38 29.7547ZM173.601 232.652C173.601 214.075 190.007 197.487 212 197.487C233.993 197.487 250.399 214.075 250.399 232.652L250.399 288.165H277.088L277.088 232.652C277.088 197.743 247.09 170.799 212 170.799C176.91 170.799 146.912 197.743 146.912 232.652L146.912 288.165H173.601V232.652Z" fill="black" fill-opacity="0.1"/>
</svg>
