<svg width="424" height="320" viewBox="0 0 424 320" fill="none" xmlns="http://www.w3.org/2000/svg">
<line x1="112.3" y1="1.36707e-08" x2="112.3" y2="320" stroke="#BABABA" stroke-width="0.6"/>
<line x1="212.3" y1="1.36707e-08" x2="212.3" y2="320" stroke="#BABABA" stroke-width="0.6"/>
<line x1="332.3" y1="1.36707e-08" x2="332.3" y2="320" stroke="#BABABA" stroke-width="0.6"/>
<line x1="72.2998" y1="1.36707e-08" x2="72.2997" y2="320" stroke="#BABABA" stroke-width="0.6"/>
<line x1="172.3" y1="1.36707e-08" x2="172.3" y2="320" stroke="#BABABA" stroke-width="0.6"/>
<line x1="292.3" y1="1.36707e-08" x2="292.3" y2="320" stroke="#BABABA" stroke-width="0.6"/>
<line x1="132.3" y1="1.36707e-08" x2="132.3" y2="320" stroke="#BABABA" stroke-width="0.6"/>
<line x1="232.3" y1="1.36707e-08" x2="232.3" y2="320" stroke="#BABABA" stroke-width="0.6"/>
<line x1="352.3" y1="1.36707e-08" x2="352.3" y2="320" stroke="#BABABA" stroke-width="0.6"/>
<line x1="92.2998" y1="1.36707e-08" x2="92.2997" y2="320" stroke="#BABABA" stroke-width="0.6"/>
<line x1="192.3" y1="1.36707e-08" x2="192.3" y2="320" stroke="#BABABA" stroke-width="0.6"/>
<line x1="312.3" y1="1.36707e-08" x2="312.3" y2="320" stroke="#BABABA" stroke-width="0.6"/>
<line x1="152.3" y1="1.36707e-08" x2="152.3" y2="320" stroke="#BABABA" stroke-width="0.6"/>
<line x1="272.3" y1="1.36707e-08" x2="272.3" y2="320" stroke="#BABABA" stroke-width="0.6"/>
<line x1="252.3" y1="1.36707e-08" x2="252.3" y2="320" stroke="#BABABA" stroke-width="0.6"/>
<line x1="372" y1="60.3" x2="52" y2="60.3" stroke="#BABABA" stroke-width="0.6"/>
<line x1="372" y1="160.3" x2="52" y2="160.3" stroke="#BABABA" stroke-width="0.6"/>
<line x1="372" y1="280.3" x2="52" y2="280.3" stroke="#BABABA" stroke-width="0.6"/>
<line x1="372" y1="20.3" x2="52" y2="20.3" stroke="#BABABA" stroke-width="0.6"/>
<line x1="372" y1="120.3" x2="52" y2="120.3" stroke="#BABABA" stroke-width="0.6"/>
<line x1="372" y1="240.3" x2="52" y2="240.3" stroke="#BABABA" stroke-width="0.6"/>
<line x1="372" y1="80.3" x2="52" y2="80.3" stroke="#BABABA" stroke-width="0.6"/>
<line x1="372" y1="180.3" x2="52" y2="180.3" stroke="#BABABA" stroke-width="0.6"/>
<line x1="372" y1="300.3" x2="52" y2="300.3" stroke="#BABABA" stroke-width="0.6"/>
<line x1="372" y1="40.3" x2="52" y2="40.3" stroke="#BABABA" stroke-width="0.6"/>
<line x1="372" y1="140.3" x2="52" y2="140.3" stroke="#BABABA" stroke-width="0.6"/>
<line x1="372" y1="260.3" x2="52" y2="260.3" stroke="#BABABA" stroke-width="0.6"/>
<line x1="372" y1="100.3" x2="52" y2="100.3" stroke="#BABABA" stroke-width="0.6"/>
<line x1="372" y1="220.3" x2="52" y2="220.3" stroke="#BABABA" stroke-width="0.6"/>
<line x1="372" y1="200.3" x2="52" y2="200.3" stroke="#BABABA" stroke-width="0.6"/>
<rect x="52.3" y="0.3" width="319.4" height="319.4" stroke="#BABABA" stroke-width="0.6"/>
<rect x="321.4" y="219.4" width="50.2" height="50.2" rx="25.1" stroke="#0272D5" stroke-width="0.8"/>
<path d="M395.592 263H397V252.008H393.608V253.352H395.592V263ZM402.789 251.832C400.661 251.832 399.237 253.4 399.237 255.608H400.613C400.613 254.264 401.477 253.16 402.789 253.16C403.973 253.16 404.917 254.056 404.917 255.24C404.917 256.056 404.517 256.792 403.541 257.736L399.157 261.848V263H406.485V261.688H401.237L404.341 258.792C405.733 257.496 406.341 256.456 406.341 255.176C406.341 253.224 404.821 251.832 402.789 251.832ZM408.433 264.584H409.361L410.065 263.064C410.209 262.744 410.321 262.472 410.321 262.152C410.321 261.624 409.873 261.208 409.345 261.208C408.785 261.208 408.353 261.592 408.353 262.152C408.353 262.648 408.721 263 409.153 263H409.185L408.433 264.584ZM412.273 257.832L413.521 258.104C413.985 257.4 414.833 256.888 415.793 256.888C417.201 256.888 418.305 257.944 418.305 259.352C418.305 260.76 417.217 261.848 415.825 261.848C414.481 261.848 413.425 260.84 413.425 259.736H412.001C412.001 261.736 413.649 263.176 415.841 263.176C418.033 263.176 419.729 261.512 419.729 259.288C419.729 257.256 418.225 255.624 416.161 255.624C415.201 255.624 414.289 256.024 413.729 256.552L414.177 253.304H418.945V252.008H413.057L412.273 257.832Z" fill="#0272D5"/>
<line x1="346" y1="244.6" x2="393" y2="244.6" stroke="#0272D5" stroke-width="0.8" stroke-dasharray="3 2"/>
<line x1="346" y1="269.6" x2="393" y2="269.6" stroke="#0272D5" stroke-width="0.8" stroke-dasharray="3 2"/>
<path fill-rule="evenodd" clip-rule="evenodd" d="M77 75H347V100H77V75ZM77 150V245H347V150H77ZM52 75C52 61.1929 63.1929 50 77 50H347C360.807 50 372 61.1929 372 75V245C372 258.807 360.807 270 347 270H77C63.1929 270 52 258.807 52 245V75ZM142 220H102V195H142V220Z" fill="black" fill-opacity="0.1"/>
</svg>
