<svg width="518" height="406" viewBox="0 0 518 406" fill="none" xmlns="http://www.w3.org/2000/svg">
<path d="M478 85L482 85L482 405L478 405" stroke="#0272D5" stroke-width="0.8"/>
<path d="M98 26V22L419 22V26" stroke="#0272D5" stroke-width="0.8"/>
<path d="M494.592 251H496V240.008H492.608V241.352H494.592V251ZM506.157 247.288C506.157 245.24 504.573 243.56 502.445 243.56C501.853 243.56 501.373 243.72 501.053 243.96L503.757 240.008H502.061L499.437 243.976C498.541 245.32 498.205 246.328 498.205 247.272C498.205 249.496 499.901 251.176 502.189 251.176C504.429 251.176 506.157 249.464 506.157 247.288ZM504.733 247.352C504.733 248.712 503.597 249.848 502.173 249.848C500.717 249.848 499.629 248.728 499.629 247.336C499.629 245.928 500.749 244.84 502.189 244.84C503.597 244.84 504.733 245.912 504.733 247.352ZM512.141 251.176C515.133 251.176 516.573 248.456 516.573 245.512C516.573 242.536 515.133 239.832 512.141 239.832C509.149 239.832 507.709 242.536 507.709 245.512C507.709 248.456 509.149 251.176 512.141 251.176ZM512.141 249.848C510.045 249.848 509.133 247.752 509.133 245.512C509.133 243.272 510.045 241.16 512.141 241.16C514.237 241.16 515.149 243.272 515.149 245.512C515.149 247.752 514.237 249.848 512.141 249.848Z" fill="#0272D5"/>
<path d="M248.858 12H250.266V1.008H246.874V2.352H248.858V12ZM260.423 8.288C260.423 6.24 258.839 4.56 256.711 4.56C256.119 4.56 255.639 4.72 255.319 4.96L258.023 1.008H256.327L253.703 4.976C252.807 6.32 252.471 7.328 252.471 8.272C252.471 10.496 254.167 12.176 256.455 12.176C258.695 12.176 260.423 10.464 260.423 8.288ZM258.999 8.352C258.999 9.712 257.863 10.848 256.439 10.848C254.983 10.848 253.895 9.728 253.895 8.336C253.895 6.928 255.015 5.84 256.455 5.84C257.863 5.84 258.999 6.912 258.999 8.352ZM266.406 12.176C269.398 12.176 270.838 9.456 270.838 6.512C270.838 3.536 269.398 0.832 266.406 0.832C263.414 0.832 261.974 3.536 261.974 6.512C261.974 9.456 263.414 12.176 266.406 12.176ZM266.406 10.848C264.31 10.848 263.398 8.752 263.398 6.512C263.398 4.272 264.31 2.16 266.406 2.16C268.502 2.16 269.414 4.272 269.414 6.512C269.414 8.752 268.502 10.848 266.406 10.848Z" fill="#0272D5"/>
<rect x="399" y="85" width="20" height="20" fill="#EDD1D2"/>
<line x1="159.3" y1="85" x2="159.3" y2="405" stroke="#BABABA" stroke-width="0.6"/>
<line x1="259.3" y1="85" x2="259.3" y2="405" stroke="#BABABA" stroke-width="0.6"/>
<line x1="379.3" y1="85" x2="379.3" y2="405" stroke="#BABABA" stroke-width="0.6"/>
<line x1="119.3" y1="85" x2="119.3" y2="405" stroke="#BABABA" stroke-width="0.6"/>
<line x1="219.3" y1="85" x2="219.3" y2="405" stroke="#BABABA" stroke-width="0.6"/>
<line x1="339.3" y1="85" x2="339.3" y2="405" stroke="#BABABA" stroke-width="0.6"/>
<line x1="179.3" y1="85" x2="179.3" y2="405" stroke="#BABABA" stroke-width="0.6"/>
<line x1="279.3" y1="85" x2="279.3" y2="405" stroke="#BABABA" stroke-width="0.6"/>
<line x1="399.3" y1="85" x2="399.3" y2="405" stroke="#BABABA" stroke-width="0.6"/>
<line x1="139.3" y1="85" x2="139.3" y2="405" stroke="#BABABA" stroke-width="0.6"/>
<line x1="239.3" y1="85" x2="239.3" y2="405" stroke="#BABABA" stroke-width="0.6"/>
<line x1="359.3" y1="85" x2="359.3" y2="405" stroke="#BABABA" stroke-width="0.6"/>
<line x1="199.3" y1="85" x2="199.3" y2="405" stroke="#BABABA" stroke-width="0.6"/>
<line x1="319.3" y1="85" x2="319.3" y2="405" stroke="#BABABA" stroke-width="0.6"/>
<line x1="299.3" y1="85" x2="299.3" y2="405" stroke="#BABABA" stroke-width="0.6"/>
<line x1="419" y1="145.3" x2="99" y2="145.3" stroke="#BABABA" stroke-width="0.6"/>
<line x1="419" y1="245.3" x2="99" y2="245.3" stroke="#BABABA" stroke-width="0.6"/>
<line x1="419" y1="365.3" x2="99" y2="365.3" stroke="#BABABA" stroke-width="0.6"/>
<line x1="419" y1="105.3" x2="99" y2="105.3" stroke="#BABABA" stroke-width="0.6"/>
<line x1="419" y1="205.3" x2="99" y2="205.3" stroke="#BABABA" stroke-width="0.6"/>
<line x1="419" y1="325.3" x2="99" y2="325.3" stroke="#BABABA" stroke-width="0.6"/>
<line x1="419" y1="165.3" x2="99" y2="165.3" stroke="#BABABA" stroke-width="0.6"/>
<line x1="419" y1="265.3" x2="99" y2="265.3" stroke="#BABABA" stroke-width="0.6"/>
<line x1="419" y1="385.3" x2="99" y2="385.3" stroke="#BABABA" stroke-width="0.6"/>
<line x1="419" y1="125.3" x2="99" y2="125.3" stroke="#BABABA" stroke-width="0.6"/>
<line x1="419" y1="225.3" x2="99" y2="225.3" stroke="#BABABA" stroke-width="0.6"/>
<line x1="419" y1="345.3" x2="99" y2="345.3" stroke="#BABABA" stroke-width="0.6"/>
<line x1="419" y1="185.3" x2="99" y2="185.3" stroke="#BABABA" stroke-width="0.6"/>
<line x1="419" y1="305.3" x2="99" y2="305.3" stroke="#BABABA" stroke-width="0.6"/>
<line x1="419" y1="285.3" x2="99" y2="285.3" stroke="#BABABA" stroke-width="0.6"/>
<path d="M434 85L438 85L438 104L434 104" stroke="#0272D5" stroke-width="0.8"/>
<path d="M399 70V66H419V70" stroke="#0272D5" stroke-width="0.8"/>
<path d="M453.592 101H455V90.008H451.608V91.352H453.592V101ZM461.781 101.176C464.773 101.176 466.213 98.456 466.213 95.512C466.213 92.536 464.773 89.832 461.781 89.832C458.789 89.832 457.349 92.536 457.349 95.512C457.349 98.456 458.789 101.176 461.781 101.176ZM461.781 99.848C459.685 99.848 458.773 97.752 458.773 95.512C458.773 93.272 459.685 91.16 461.781 91.16C463.877 91.16 464.789 93.272 464.789 95.512C464.789 97.752 463.877 99.848 461.781 99.848Z" fill="#0272D5"/>
<path d="M403.037 51H404.445V40.008H401.053V41.352H403.037V51ZM411.226 51.176C414.218 51.176 415.658 48.456 415.658 45.512C415.658 42.536 414.218 39.832 411.226 39.832C408.234 39.832 406.794 42.536 406.794 45.512C406.794 48.456 408.234 51.176 411.226 51.176ZM411.226 49.848C409.13 49.848 408.218 47.752 408.218 45.512C408.218 43.272 409.13 41.16 411.226 41.16C413.322 41.16 414.234 43.272 414.234 45.512C414.234 47.752 413.322 49.848 411.226 49.848Z" fill="#0272D5"/>
<rect x="99.3" y="85.3" width="319.4" height="319.4" stroke="#BABABA" stroke-width="0.6"/>
</svg>
