<svg width="251" height="56" viewBox="0 0 251 56" fill="none" xmlns="http://www.w3.org/2000/svg">
<path d="M89.712 33H91.088V26.456H92.688V25.224H91.088V22.888H89.712V25.224H88.32V26.456H89.712V33ZM98.2659 26.504V25.128C98.2499 25.128 98.2179 25.128 98.1699 25.112C98.1059 25.112 98.0419 25.096 97.9299 25.096C96.9219 25.096 95.8819 25.704 95.5459 26.6V25.224H94.2019V33H95.5619V29.304C95.5619 27.624 96.4259 26.472 97.8819 26.472C97.9939 26.472 98.1059 26.488 98.1699 26.488C98.2179 26.504 98.2499 26.504 98.2659 26.504ZM103.184 33.176C105.248 33.176 106.512 31.848 106.512 29.592V25.224H105.136V29.512C105.136 30.984 104.4 31.88 103.184 31.88C101.968 31.88 101.232 30.984 101.232 29.512V25.224H99.8555V29.592C99.8555 31.848 101.12 33.176 103.184 33.176ZM108.392 29.112C108.392 31.4 110.04 33.176 112.472 33.176C113.288 33.176 114.024 32.952 114.712 32.52V31.128C114.088 31.528 113.336 31.896 112.52 31.896C110.936 31.896 109.784 30.664 109.784 29.112C109.784 27.544 110.936 26.328 112.52 26.328C113.272 26.328 113.976 26.584 114.664 27.112V25.72C114.008 25.272 113.272 25.048 112.456 25.048C110.072 25.048 108.392 26.84 108.392 29.112ZM118.031 28.312V21.8H116.671V33H118.031V29.88L118.559 29.384L121.615 33H123.359L119.519 28.536L123.055 25.224H121.295L118.031 28.312ZM126.508 32.168C126.508 31.64 126.092 31.208 125.532 31.208C124.972 31.208 124.556 31.64 124.556 32.168C124.556 32.728 124.972 33.144 125.532 33.144C126.092 33.144 126.508 32.728 126.508 32.168ZM129.463 30.6L128.247 31.064C128.615 32.344 129.703 33.176 131.159 33.176C132.679 33.176 133.847 32.184 133.847 30.808C133.847 29.784 133.223 29.032 131.815 28.536L131.015 28.264C130.263 27.992 129.879 27.64 129.879 27.176C129.879 26.616 130.375 26.232 131.015 26.232C131.703 26.232 132.231 26.664 132.503 27.416L133.703 26.936C133.271 25.768 132.327 25.048 131.047 25.048C129.591 25.048 128.519 25.944 128.519 27.272C128.519 28.28 129.111 29.016 130.519 29.48L131.383 29.768C132.119 30.008 132.487 30.392 132.487 30.888C132.487 31.576 131.847 31.976 131.191 31.976C130.375 31.976 129.703 31.432 129.463 30.6ZM137.958 33H139.078L142.326 25.224H140.886L138.534 31.112L136.182 25.224H134.71L137.958 33ZM149.575 31.512V32.584C149.575 34.248 148.615 35.272 147.079 35.272C145.991 35.272 145.079 34.744 144.519 33.736L143.431 34.504C144.151 35.8 145.463 36.52 147.079 36.52C149.431 36.52 150.935 34.968 150.935 32.552V25.224H149.575V26.392C149.015 25.544 147.991 25.048 146.887 25.048C144.775 25.048 143.095 26.776 143.095 29C143.095 31.24 144.775 32.92 146.887 32.92C147.991 32.92 149.015 32.36 149.575 31.512ZM149.655 29C149.655 30.504 148.535 31.688 147.063 31.688C145.591 31.688 144.487 30.504 144.487 29C144.487 27.496 145.591 26.312 147.063 26.312C148.535 26.312 149.655 27.496 149.655 29ZM157.357 34.6L163.245 20.76H161.869L155.981 34.6H157.357ZM168.962 33H170.338V26.456H171.938V25.224H170.338V22.888H168.962V25.224H167.57V26.456H168.962V33ZM177.516 26.504V25.128C177.5 25.128 177.468 25.128 177.42 25.112C177.356 25.112 177.292 25.096 177.18 25.096C176.172 25.096 175.132 25.704 174.796 26.6V25.224H173.452V33H174.812V29.304C174.812 27.624 175.676 26.472 177.132 26.472C177.244 26.472 177.356 26.488 177.42 26.488C177.468 26.504 177.5 26.504 177.516 26.504ZM182.434 33.176C184.498 33.176 185.762 31.848 185.762 29.592V25.224H184.386V29.512C184.386 30.984 183.65 31.88 182.434 31.88C181.218 31.88 180.482 30.984 180.482 29.512V25.224H179.106V29.592C179.106 31.848 180.37 33.176 182.434 33.176ZM187.642 29.112C187.642 31.4 189.29 33.176 191.722 33.176C192.538 33.176 193.274 32.952 193.962 32.52V31.128C193.338 31.528 192.586 31.896 191.77 31.896C190.186 31.896 189.034 30.664 189.034 29.112C189.034 27.544 190.186 26.328 191.77 26.328C192.522 26.328 193.226 26.584 193.914 27.112V25.72C193.258 25.272 192.522 25.048 191.706 25.048C189.322 25.048 187.642 26.84 187.642 29.112ZM197.281 28.312V21.8H195.921V33H197.281V29.88L197.809 29.384L200.865 33H202.609L198.769 28.536L202.305 25.224H200.545L197.281 28.312ZM205.758 32.168C205.758 31.64 205.342 31.208 204.782 31.208C204.222 31.208 203.806 31.64 203.806 32.168C203.806 32.728 204.222 33.144 204.782 33.144C205.342 33.144 205.758 32.728 205.758 32.168ZM208.077 36.328H209.437V31.832C210.013 32.68 211.037 33.176 212.189 33.176C214.413 33.176 216.093 31.4 216.093 29.112C216.093 26.808 214.413 25.048 212.189 25.048C211.037 25.048 209.997 25.608 209.437 26.456V25.224H208.077V36.328ZM214.701 29.112C214.701 30.696 213.565 31.912 212.029 31.912C210.493 31.912 209.357 30.696 209.357 29.112C209.357 27.528 210.493 26.312 212.029 26.312C213.565 26.312 214.701 27.528 214.701 29.112ZM219.469 33V28.936C219.469 27.336 220.317 26.328 221.661 26.328C223.005 26.328 223.709 27.192 223.709 28.6V33H225.085V28.44C225.085 26.376 223.949 25.048 221.949 25.048C220.781 25.048 219.965 25.576 219.469 26.344V25.224H218.093V33H219.469ZM233.45 31.512V32.584C233.45 34.248 232.49 35.272 230.954 35.272C229.866 35.272 228.954 34.744 228.394 33.736L227.306 34.504C228.026 35.8 229.338 36.52 230.954 36.52C233.306 36.52 234.81 34.968 234.81 32.552V25.224H233.45V26.392C232.89 25.544 231.866 25.048 230.762 25.048C228.65 25.048 226.97 26.776 226.97 29C226.97 31.24 228.65 32.92 230.762 32.92C231.866 32.92 232.89 32.36 233.45 31.512ZM233.53 29C233.53 30.504 232.41 31.688 230.938 31.688C229.466 31.688 228.362 30.504 228.362 29C228.362 27.496 229.466 26.312 230.938 26.312C232.41 26.312 233.53 27.496 233.53 29Z" fill="#0272D5"/>
<path fill-rule="evenodd" clip-rule="evenodd" d="M35.5177 5.34306H5.34306L5.34305 41.6758H35.5177L35.5177 5.34306ZM5.34306 0C2.39217 0 0 2.39217 0 5.34306V41.6758C0 44.6267 2.39217 47.0189 5.34305 47.0189H35.5177C38.4686 47.0189 40.8608 44.6267 40.8608 41.6758V5.34306C40.8608 2.39217 38.4686 0 35.5177 0H5.34306Z" fill="#2C3357"/>
<path fill-rule="evenodd" clip-rule="evenodd" d="M49.4549 18.1663L40.8431 18.1663L40.8431 41.6757L58.6569 41.6757L58.6569 28.5754L49.4549 18.1663ZM40.8431 12.8232H49.4549C50.9862 12.8232 52.4438 13.4802 53.458 14.6274L62.66 25.0366C63.5234 26.0132 64 27.2718 64 28.5754V41.6757C64 44.6266 61.6078 47.0188 58.6569 47.0188H40.8431C37.8922 47.0188 35.5 44.6266 35.5 41.6757V18.1663C35.5 15.2154 37.8922 12.8232 40.8431 12.8232Z" fill="#2C3357"/>
<path d="M38.9609 25.1123H61.1642V30.4554H38.9609V25.1123Z" fill="#2C3357"/>
<path d="M24.3983 41.6758H44.765V47.0188H24.3983V41.6758Z" fill="#2C3357"/>
<path d="M15.8523 38.4702C20.8883 38.4702 24.9822 42.3061 24.9822 47.0191C24.9822 51.7321 20.8883 55.568 15.8523 55.568C10.8163 55.568 6.72241 51.7321 6.72241 47.0191C6.72241 42.3061 10.8163 38.4702 15.8523 38.4702Z" fill="#E5E5E5"/>
<path fill-rule="evenodd" clip-rule="evenodd" d="M19.6391 47.0191C19.6391 45.5814 18.2727 43.8133 15.8523 43.8133C13.4318 43.8133 12.0655 45.5814 12.0655 47.0191C12.0655 48.4568 13.4318 50.2249 15.8523 50.2249C18.2727 50.2249 19.6391 48.4568 19.6391 47.0191ZM24.9822 47.0191C24.9822 42.3061 20.8883 38.4702 15.8523 38.4702C10.8163 38.4702 6.72241 42.3061 6.72241 47.0191C6.72241 51.7321 10.8163 55.568 15.8523 55.568C20.8883 55.568 24.9822 51.7321 24.9822 47.0191Z" fill="#2C3357"/>
<path d="M49.75 38.4702C54.786 38.4702 58.8799 42.3061 58.8799 47.0191C58.8799 51.7321 54.786 55.568 49.75 55.568C44.714 55.568 40.6201 51.7321 40.6201 47.0191C40.6201 42.3061 44.714 38.4702 49.75 38.4702Z" fill="#E5E5E5"/>
<path fill-rule="evenodd" clip-rule="evenodd" d="M53.5368 47.0191C53.5368 45.5814 52.1705 43.8133 49.75 43.8133C47.3295 43.8133 45.9632 45.5814 45.9632 47.0191C45.9632 48.4568 47.3295 50.2249 49.75 50.2249C52.1705 50.2249 53.5368 48.4568 53.5368 47.0191ZM58.8799 47.0191C58.8799 42.3061 54.786 38.4702 49.75 38.4702C44.714 38.4702 40.6201 42.3061 40.6201 47.0191C40.6201 51.7321 44.714 55.568 49.75 55.568C54.786 55.568 58.8799 51.7321 58.8799 47.0191Z" fill="#2C3357"/>
</svg>
