<svg width="778" height="155" viewBox="0 0 778 155" fill="none" xmlns="http://www.w3.org/2000/svg">
<path d="M624.894 140.6C625.395 140.6 625.843 140.424 626.238 140.072C626.632 139.72 626.83 139.32 626.83 138.872C626.83 138.381 626.638 137.971 626.254 137.64C625.88 137.309 625.422 137.144 624.878 137.144C624.28 137.144 623.795 137.341 623.422 137.736C623.048 138.12 622.851 138.616 622.83 139.224H621.454C621.475 138.211 621.806 137.395 622.446 136.776C623.086 136.147 623.907 135.832 624.91 135.832C625.87 135.832 626.659 136.109 627.278 136.664C627.907 137.219 628.222 137.912 628.222 138.744C628.222 139.267 628.088 139.741 627.822 140.168C627.555 140.584 627.176 140.909 626.686 141.144C627.294 141.347 627.779 141.693 628.142 142.184C628.504 142.664 628.686 143.219 628.686 143.848C628.686 144.819 628.328 145.619 627.614 146.248C626.91 146.867 626.019 147.176 624.942 147.176C623.822 147.176 622.92 146.851 622.238 146.2C621.555 145.539 621.203 144.664 621.182 143.576H622.574C622.616 144.248 622.851 144.797 623.278 145.224C623.715 145.64 624.27 145.848 624.942 145.848C625.614 145.848 626.168 145.661 626.606 145.288C627.043 144.915 627.262 144.429 627.262 143.832C627.262 143.256 627.032 142.781 626.574 142.408C626.126 142.035 625.566 141.848 624.894 141.848H624.286V140.6H624.894ZM633.656 135.832C634.68 135.832 635.528 136.147 636.2 136.776C636.872 137.405 637.208 138.205 637.208 139.176C637.208 139.805 637.048 140.403 636.728 140.968C636.419 141.523 635.912 142.131 635.208 142.792L632.104 145.688H637.352V147H630.024V145.848L634.408 141.736C635.326 140.851 635.784 140.019 635.784 139.24C635.784 138.653 635.576 138.163 635.16 137.768C634.755 137.363 634.254 137.16 633.656 137.16C633.016 137.16 632.494 137.4 632.088 137.88C631.683 138.349 631.48 138.925 631.48 139.608H630.104C630.104 138.499 630.43 137.592 631.08 136.888C631.742 136.184 632.6 135.832 633.656 135.832ZM639.303 150.328V139.224H640.663V140.456C640.951 140.029 641.341 139.688 641.831 139.432C642.322 139.176 642.85 139.048 643.415 139.048C644.525 139.048 645.453 139.437 646.199 140.216C646.946 140.995 647.319 141.96 647.319 143.112C647.319 144.264 646.946 145.229 646.199 146.008C645.453 146.787 644.525 147.176 643.415 147.176C642.839 147.176 642.306 147.059 641.815 146.824C641.335 146.589 640.951 146.259 640.663 145.832V150.328H639.303ZM645.159 145.112C645.671 144.579 645.927 143.912 645.927 143.112C645.927 142.312 645.671 141.645 645.159 141.112C644.658 140.579 644.023 140.312 643.255 140.312C642.487 140.312 641.847 140.579 641.335 141.112C640.834 141.645 640.583 142.312 640.583 143.112C640.583 143.912 640.834 144.579 641.335 145.112C641.847 145.645 642.487 145.912 643.255 145.912C644.023 145.912 644.658 145.645 645.159 145.112ZM651.539 143.992L649.395 147H647.843L650.739 143.032L647.971 139.224H649.571L651.571 142.04L653.587 139.224H655.155L652.387 143L655.283 147H653.667L651.539 143.992Z" fill="#0272D5"/>
<path d="M490.524 143.288C490.524 141.24 488.94 139.56 486.812 139.56C486.22 139.56 485.74 139.72 485.42 139.96L488.124 136.008H486.428L483.804 139.976C482.908 141.32 482.572 142.328 482.572 143.272C482.572 145.496 484.268 147.176 486.556 147.176C488.796 147.176 490.524 145.464 490.524 143.288ZM489.1 143.352C489.1 144.712 487.964 145.848 486.54 145.848C485.084 145.848 483.996 144.728 483.996 143.336C483.996 141.928 485.116 140.84 486.556 140.84C487.964 140.84 489.1 141.912 489.1 143.352ZM491.596 143.352V144.424H497.26V147H498.652V144.424H500.188V143.176H498.652V136.024H497.052L491.596 143.352ZM497.26 143.176H493.26L497.26 137.832V143.176ZM501.913 150.328H503.273V145.832C503.849 146.68 504.873 147.176 506.025 147.176C508.249 147.176 509.929 145.4 509.929 143.112C509.929 140.808 508.249 139.048 506.025 139.048C504.873 139.048 503.833 139.608 503.273 140.456V139.224H501.913V150.328ZM508.537 143.112C508.537 144.696 507.401 145.912 505.865 145.912C504.329 145.912 503.193 144.696 503.193 143.112C503.193 141.528 504.329 140.312 505.865 140.312C507.401 140.312 508.537 141.528 508.537 143.112ZM514.148 143.992L516.276 147H517.892L514.996 143L517.764 139.224H516.196L514.18 142.04L512.18 139.224H510.58L513.348 143.032L510.452 147H512.004L514.148 143.992Z" fill="#0272D5"/>
<path d="M296.311 147H297.719V136.008H294.327V137.352H296.311V147ZM303.508 135.832C301.38 135.832 299.956 137.4 299.956 139.608H301.332C301.332 138.264 302.196 137.16 303.508 137.16C304.692 137.16 305.636 138.056 305.636 139.24C305.636 140.056 305.236 140.792 304.26 141.736L299.876 145.848V147H307.204V145.688H301.956L305.06 142.792C306.452 141.496 307.06 140.456 307.06 139.176C307.06 137.224 305.54 135.832 303.508 135.832ZM312.307 135.832C310.515 135.832 308.947 136.984 308.947 138.728C308.947 139.912 309.699 140.808 310.531 141.096C309.619 141.448 308.515 142.312 308.515 143.88C308.515 145.928 310.323 147.176 312.307 147.176C314.291 147.176 316.099 145.928 316.099 143.88C316.099 142.312 314.995 141.448 314.083 141.096C314.915 140.792 315.667 139.928 315.667 138.728C315.667 136.984 314.099 135.832 312.307 135.832ZM312.307 137.128C313.347 137.128 314.291 137.8 314.291 138.824C314.291 139.848 313.347 140.52 312.307 140.52C311.267 140.52 310.323 139.848 310.323 138.824C310.323 137.8 311.267 137.128 312.307 137.128ZM314.691 143.816C314.691 145.048 313.587 145.864 312.307 145.864C311.027 145.864 309.923 145.048 309.923 143.816C309.923 142.6 310.979 141.784 312.307 141.784C313.619 141.784 314.691 142.6 314.691 143.816ZM318.014 150.328H319.374V145.832C319.95 146.68 320.974 147.176 322.126 147.176C324.35 147.176 326.03 145.4 326.03 143.112C326.03 140.808 324.35 139.048 322.126 139.048C320.974 139.048 319.934 139.608 319.374 140.456V139.224H318.014V150.328ZM324.638 143.112C324.638 144.696 323.502 145.912 321.966 145.912C320.43 145.912 319.294 144.696 319.294 143.112C319.294 141.528 320.43 140.312 321.966 140.312C323.502 140.312 324.638 141.528 324.638 143.112ZM330.25 143.992L332.378 147H333.994L331.098 143L333.866 139.224H332.298L330.282 142.04L328.282 139.224H326.682L329.45 143.032L326.554 147H328.106L330.25 143.992Z" fill="#0272D5"/>
<path d="M61.0842 147H62.4922V136.008H59.1002V137.352H61.0842V147ZM72.6493 143.288C72.6493 141.24 71.0653 139.56 68.9373 139.56C68.3453 139.56 67.8653 139.72 67.5453 139.96L70.2493 136.008H68.5533L65.9293 139.976C65.0333 141.32 64.6973 142.328 64.6973 143.272C64.6973 145.496 66.3933 147.176 68.6813 147.176C70.9213 147.176 72.6493 145.464 72.6493 143.288ZM71.2253 143.352C71.2253 144.712 70.0893 145.848 68.6653 145.848C67.2093 145.848 66.1213 144.728 66.1213 143.336C66.1213 141.928 67.2413 140.84 68.6813 140.84C70.0893 140.84 71.2253 141.912 71.2253 143.352ZM78.6327 147.176C81.6247 147.176 83.0647 144.456 83.0647 141.512C83.0647 138.536 81.6247 135.832 78.6327 135.832C75.6407 135.832 74.2007 138.536 74.2007 141.512C74.2007 144.456 75.6407 147.176 78.6327 147.176ZM78.6327 145.848C76.5367 145.848 75.6247 143.752 75.6247 141.512C75.6247 139.272 76.5367 137.16 78.6327 137.16C80.7287 137.16 81.6407 139.272 81.6407 141.512C81.6407 143.752 80.7287 145.848 78.6327 145.848ZM85.2409 150.328H86.6009V145.832C87.1769 146.68 88.2009 147.176 89.3529 147.176C91.5769 147.176 93.2569 145.4 93.2569 143.112C93.2569 140.808 91.5769 139.048 89.3529 139.048C88.2009 139.048 87.1609 139.608 86.6009 140.456V139.224H85.2409V150.328ZM91.8649 143.112C91.8649 144.696 90.7289 145.912 89.1929 145.912C87.6569 145.912 86.5209 144.696 86.5209 143.112C86.5209 141.528 87.6569 140.312 89.1929 140.312C90.7289 140.312 91.8649 141.528 91.8649 143.112ZM97.4762 143.992L99.6042 147H101.22L98.3242 143L101.092 139.224H99.5242L97.5082 142.04L95.5082 139.224H93.9082L96.6762 143.032L93.7802 147H95.3322L97.4762 143.992Z" fill="#0272D5"/>
<path d="M738.412 147V137.352H736.428V136.008H739.82V147H738.412ZM749.977 143.288C749.977 144.376 749.593 145.299 748.825 146.056C748.068 146.803 747.129 147.176 746.009 147.176C744.868 147.176 743.919 146.803 743.161 146.056C742.404 145.309 742.025 144.381 742.025 143.272C742.025 142.312 742.436 141.213 743.257 139.976L745.881 136.008H747.577L744.873 139.96C745.225 139.693 745.689 139.56 746.265 139.56C747.321 139.56 748.201 139.923 748.905 140.648C749.62 141.373 749.977 142.253 749.977 143.288ZM748.553 143.352C748.553 142.637 748.308 142.04 747.817 141.56C747.327 141.08 746.724 140.84 746.009 140.84C745.284 140.84 744.676 141.08 744.185 141.56C743.695 142.04 743.449 142.632 743.449 143.336C743.449 144.04 743.689 144.637 744.169 145.128C744.66 145.608 745.268 145.848 745.993 145.848C746.697 145.848 747.3 145.603 747.801 145.112C748.303 144.621 748.553 144.035 748.553 143.352ZM751.913 150.328V139.224H753.273V140.456C753.561 140.029 753.95 139.688 754.441 139.432C754.931 139.176 755.459 139.048 756.025 139.048C757.134 139.048 758.062 139.437 758.809 140.216C759.555 140.995 759.929 141.96 759.929 143.112C759.929 144.264 759.555 145.229 758.809 146.008C758.062 146.787 757.134 147.176 756.025 147.176C755.449 147.176 754.915 147.059 754.425 146.824C753.945 146.589 753.561 146.259 753.273 145.832V150.328H751.913ZM757.769 145.112C758.281 144.579 758.537 143.912 758.537 143.112C758.537 142.312 758.281 141.645 757.769 141.112C757.267 140.579 756.633 140.312 755.865 140.312C755.097 140.312 754.457 140.579 753.945 141.112C753.443 141.645 753.193 142.312 753.193 143.112C753.193 143.912 753.443 144.579 753.945 145.112C754.457 145.645 755.097 145.912 755.865 145.912C756.633 145.912 757.267 145.645 757.769 145.112ZM764.148 143.992L762.004 147H760.452L763.348 143.032L760.58 139.224H762.18L764.18 142.04L766.196 139.224H767.764L764.996 143L767.892 147H766.276L764.148 143.992Z" fill="#0272D5"/>
<path d="M147.5 0H12.5C5.6 0 0 5.6 0 12.5V97.5C0 104.4 5.6 110 12.5 110H147.5C154.4 110 160 104.4 160 97.5V12.5C160 5.6 154.4 0 147.5 0ZM12.5 12.5H32C32 22.1 23.3 30 12.5 30V12.5ZM12.5 97.5V80C23.3 80 32 87.9 32 97.5H12.5ZM147.5 97.5H128C128 87.9 136.7 80 147.5 80V97.5ZM147.5 67.5C129.8 67.5 115.5 80.9 115.5 97.5H44.5C44.5 80.9 30.2 67.5 12.5 67.5V42.5C30.2 42.5 44.5 29.1 44.5 12.5H115.5C115.5 29.1 129.8 42.5 147.5 42.5V67.5ZM147.5 30C136.7 30 128 22.1 128 12.5H147.5V30Z" fill="#2C3357"/>
<path d="M80 25C62.3 25 48 38.4 48 55C48 71.6 62.3 85 80 85C97.7 85 112 71.6 112 55C112 38.4 97.7 25 80 25ZM80 72.5C69.2 72.5 60.5 64.6 60.5 55C60.5 45.4 69.2 37.5 80 37.5C90.8 37.5 99.5 45.4 99.5 55C99.5 64.6 90.8 72.5 80 72.5Z" fill="#2C3357"/>
<path d="M368 12H260C254.48 12 250 16.48 250 22V90C250 95.52 254.48 100 260 100H368C373.52 100 378 95.52 378 90V22C378 16.48 373.52 12 368 12ZM260 22H275.6C275.6 29.68 268.64 36 260 36V22ZM260 90V76C268.64 76 275.6 82.32 275.6 90H260ZM368 90H352.4C352.4 82.32 359.36 76 368 76V90ZM368 66C353.84 66 342.4 76.72 342.4 90H285.6C285.6 76.72 274.16 66 260 66V46C274.16 46 285.6 35.28 285.6 22H342.4C342.4 35.28 353.84 46 368 46V66ZM368 36C359.36 36 352.4 29.68 352.4 22H368V36Z" fill="#2C3357"/>
<path d="M314 32C299.84 32 288.4 42.72 288.4 56C288.4 69.28 299.84 80 314 80C328.16 80 339.6 69.28 339.6 56C339.6 42.72 328.16 32 314 32ZM314 70C305.36 70 298.4 63.68 298.4 56C298.4 48.32 305.36 42 314 42C322.64 42 329.6 48.32 329.6 56C329.6 63.68 322.64 70 314 70Z" fill="#2C3357"/>
<path d="M527 33H473C470.24 33 468 35.24 468 38V72C468 74.76 470.24 77 473 77H527C529.76 77 532 74.76 532 72V38C532 35.24 529.76 33 527 33ZM473 38H480.8C480.8 41.84 477.32 45 473 45V38ZM473 72V65C477.32 65 480.8 68.16 480.8 72H473ZM527 72H519.2C519.2 68.16 522.68 65 527 65V72ZM527 60C519.92 60 514.2 65.36 514.2 72H485.8C485.8 65.36 480.08 60 473 60V50C480.08 50 485.8 44.64 485.8 38H514.2C514.2 44.64 519.92 50 527 50V60ZM527 45C522.68 45 519.2 41.84 519.2 38H527V45Z" fill="#2C3357"/>
<path d="M500 43C492.92 43 487.2 48.36 487.2 55C487.2 61.64 492.92 67 500 67C507.08 67 512.8 61.64 512.8 55C512.8 48.36 507.08 43 500 43ZM500 62C495.68 62 492.2 58.84 492.2 55C492.2 51.16 495.68 48 500 48C504.32 48 507.8 51.16 507.8 55C507.8 58.84 504.32 62 500 62Z" fill="#2C3357"/>
<path d="M651.5 44H624.5C623.12 44 622 45.12 622 46.5V63.5C622 64.88 623.12 66 624.5 66H651.5C652.88 66 654 64.88 654 63.5V46.5C654 45.12 652.88 44 651.5 44ZM624.5 46.5H628.4C628.4 48.42 626.66 50 624.5 50V46.5ZM624.5 63.5V60C626.66 60 628.4 61.58 628.4 63.5H624.5ZM651.5 63.5H647.6C647.6 61.58 649.34 60 651.5 60V63.5ZM651.5 57.5C647.96 57.5 645.1 60.18 645.1 63.5H630.9C630.9 60.18 628.04 57.5 624.5 57.5V52.5C628.04 52.5 630.9 49.82 630.9 46.5H645.1C645.1 49.82 647.96 52.5 651.5 52.5V57.5ZM651.5 50C649.34 50 647.6 48.42 647.6 46.5H651.5V50Z" fill="#2C3357"/>
<path d="M638 49C634.46 49 631.6 51.68 631.6 55C631.6 58.32 634.46 61 638 61C641.54 61 644.4 58.32 644.4 55C644.4 51.68 641.54 49 638 49ZM638 58.5C635.84 58.5 634.1 56.92 634.1 55C634.1 53.08 635.84 51.5 638 51.5C640.16 51.5 641.9 53.08 641.9 55C641.9 56.92 640.16 58.5 638 58.5Z" fill="#2C3357"/>
<path d="M758.75 51H745.25C744.56 51 744 51.56 744 52.25V60.75C744 61.44 744.56 62 745.25 62H758.75C759.44 62 760 61.44 760 60.75V52.25C760 51.56 759.44 51 758.75 51ZM745.25 52.25H747.2C747.2 53.21 746.33 54 745.25 54V52.25ZM745.25 60.75V59C746.33 59 747.2 59.79 747.2 60.75H745.25ZM758.75 60.75H756.8C756.8 59.79 757.67 59 758.75 59V60.75ZM758.75 57.75C756.98 57.75 755.55 59.09 755.55 60.75H748.45C748.45 59.09 747.02 57.75 745.25 57.75V55.25C747.02 55.25 748.45 53.91 748.45 52.25H755.55C755.55 53.91 756.98 55.25 758.75 55.25V57.75ZM758.75 54C757.67 54 756.8 53.21 756.8 52.25H758.75V54Z" fill="#2C3357"/>
<path d="M752 53.5C750.23 53.5 748.8 54.84 748.8 56.5C748.8 58.16 750.23 59.5 752 59.5C753.77 59.5 755.2 58.16 755.2 56.5C755.2 54.84 753.77 53.5 752 53.5ZM752 58.25C750.92 58.25 750.05 57.46 750.05 56.5C750.05 55.54 750.92 54.75 752 54.75C753.08 54.75 753.95 55.54 753.95 56.5C753.95 57.46 753.08 58.25 752 58.25Z" fill="#2C3357"/>
</svg>
