<svg width="408" height="320" viewBox="0 0 408 320" fill="none" xmlns="http://www.w3.org/2000/svg">
<path d="M382.592 166H384V155.008H380.608V156.352H382.592V166ZM389.789 154.832C387.661 154.832 386.237 156.4 386.237 158.608H387.613C387.613 157.264 388.477 156.16 389.789 156.16C390.973 156.16 391.917 157.056 391.917 158.24C391.917 159.056 391.517 159.792 390.541 160.736L386.157 164.848V166H393.485V164.688H388.237L391.341 161.792C392.733 160.496 393.341 159.456 393.341 158.176C393.341 156.224 391.821 154.832 389.789 154.832ZM395.433 167.584H396.361L397.065 166.064C397.209 165.744 397.321 165.472 397.321 165.152C397.321 164.624 396.873 164.208 396.345 164.208C395.785 164.208 395.353 164.592 395.353 165.152C395.353 165.648 395.721 166 396.153 166H396.185L395.433 167.584ZM399.273 160.832L400.521 161.104C400.985 160.4 401.833 159.888 402.793 159.888C404.201 159.888 405.305 160.944 405.305 162.352C405.305 163.76 404.217 164.848 402.825 164.848C401.481 164.848 400.425 163.84 400.425 162.736H399.001C399.001 164.736 400.649 166.176 402.841 166.176C405.033 166.176 406.729 164.512 406.729 162.288C406.729 160.256 405.225 158.624 403.161 158.624C402.201 158.624 401.289 159.024 400.729 159.552L401.177 156.304H405.945V155.008H400.057L399.273 160.832Z" fill="#0272D5"/>
<line x1="276" y1="147.6" x2="378" y2="147.6" stroke="#0272D5" stroke-width="0.8" stroke-dasharray="3 2"/>
<line x1="276" y1="172.6" x2="378" y2="172.6" stroke="#0272D5" stroke-width="0.8" stroke-dasharray="3 2"/>
<line x1="104.3" y1="1.36707e-08" x2="104.3" y2="320" stroke="#BABABA" stroke-width="0.6"/>
<line x1="204.3" y1="1.36707e-08" x2="204.3" y2="320" stroke="#BABABA" stroke-width="0.6"/>
<line x1="324.3" y1="1.36707e-08" x2="324.3" y2="320" stroke="#BABABA" stroke-width="0.6"/>
<line x1="64.2998" y1="1.36707e-08" x2="64.2997" y2="320" stroke="#BABABA" stroke-width="0.6"/>
<line x1="164.3" y1="1.36707e-08" x2="164.3" y2="320" stroke="#BABABA" stroke-width="0.6"/>
<line x1="284.3" y1="1.36707e-08" x2="284.3" y2="320" stroke="#BABABA" stroke-width="0.6"/>
<line x1="124.3" y1="1.36707e-08" x2="124.3" y2="320" stroke="#BABABA" stroke-width="0.6"/>
<line x1="224.3" y1="1.36707e-08" x2="224.3" y2="320" stroke="#BABABA" stroke-width="0.6"/>
<line x1="344.3" y1="1.36707e-08" x2="344.3" y2="320" stroke="#BABABA" stroke-width="0.6"/>
<line x1="84.2998" y1="1.36707e-08" x2="84.2997" y2="320" stroke="#BABABA" stroke-width="0.6"/>
<line x1="184.3" y1="1.36707e-08" x2="184.3" y2="320" stroke="#BABABA" stroke-width="0.6"/>
<line x1="304.3" y1="1.36707e-08" x2="304.3" y2="320" stroke="#BABABA" stroke-width="0.6"/>
<line x1="144.3" y1="1.36707e-08" x2="144.3" y2="320" stroke="#BABABA" stroke-width="0.6"/>
<line x1="264.3" y1="1.36707e-08" x2="264.3" y2="320" stroke="#BABABA" stroke-width="0.6"/>
<line x1="244.3" y1="1.36707e-08" x2="244.3" y2="320" stroke="#BABABA" stroke-width="0.6"/>
<line x1="364" y1="60.3" x2="44" y2="60.3" stroke="#BABABA" stroke-width="0.6"/>
<line x1="364" y1="160.3" x2="44" y2="160.3" stroke="#BABABA" stroke-width="0.6"/>
<line x1="364" y1="280.3" x2="44" y2="280.3" stroke="#BABABA" stroke-width="0.6"/>
<line x1="364" y1="20.3" x2="44" y2="20.3" stroke="#BABABA" stroke-width="0.6"/>
<line x1="364" y1="120.3" x2="44" y2="120.3" stroke="#BABABA" stroke-width="0.6"/>
<line x1="364" y1="240.3" x2="44" y2="240.3" stroke="#BABABA" stroke-width="0.6"/>
<line x1="364" y1="80.3" x2="44" y2="80.3" stroke="#BABABA" stroke-width="0.6"/>
<line x1="364" y1="180.3" x2="44" y2="180.3" stroke="#BABABA" stroke-width="0.6"/>
<line x1="364" y1="300.3" x2="44" y2="300.3" stroke="#BABABA" stroke-width="0.6"/>
<line x1="364" y1="40.3" x2="44" y2="40.3" stroke="#BABABA" stroke-width="0.6"/>
<line x1="364" y1="140.3" x2="44" y2="140.3" stroke="#BABABA" stroke-width="0.6"/>
<line x1="364" y1="260.3" x2="44" y2="260.3" stroke="#BABABA" stroke-width="0.6"/>
<line x1="364" y1="100.3" x2="44" y2="100.3" stroke="#BABABA" stroke-width="0.6"/>
<line x1="364" y1="220.3" x2="44" y2="220.3" stroke="#BABABA" stroke-width="0.6"/>
<line x1="364" y1="200.3" x2="44" y2="200.3" stroke="#BABABA" stroke-width="0.6"/>
<rect x="44.3" y="0.3" width="319.4" height="319.4" stroke="#BABABA" stroke-width="0.6"/>
<path d="M305 147.676H105V172.676H305V147.676Z" fill="black" fill-opacity="0.1"/>
<path d="M205 10.077C163.9 8.7828 123.967 23.8521 93.9678 51.9759C63.969 80.0997 46.3574 118.979 45 160.077C46.3574 201.175 63.969 240.054 93.9678 268.178C123.967 296.302 163.9 311.371 205 310.077C246.1 311.371 286.033 296.302 316.032 268.178C346.031 240.054 363.643 201.175 365 160.077C363.643 118.979 346.031 80.0997 316.032 51.9759C286.033 23.8521 246.1 8.7828 205 10.077ZM205 285.077C170.543 286.322 136.996 273.87 111.697 250.444C86.3974 227.019 71.4053 194.527 70 160.077C71.4053 125.627 86.3974 93.1349 111.697 69.7095C136.996 46.2842 170.543 33.832 205 35.077C239.457 33.832 273.004 46.2842 298.303 69.7095C323.603 93.1349 338.595 125.627 340 160.077C338.595 194.527 323.603 227.019 298.303 250.444C273.004 273.87 239.457 286.322 205 285.077Z" fill="black" fill-opacity="0.1"/>
</svg>
