<svg width="410" height="320" viewBox="0 0 410 320" fill="none" xmlns="http://www.w3.org/2000/svg">
<path d="M382.592 237H384V226.008H380.608V227.352H382.592V237ZM389.789 225.832C387.661 225.832 386.237 227.4 386.237 229.608H387.613C387.613 228.264 388.477 227.16 389.789 227.16C390.973 227.16 391.917 228.056 391.917 229.24C391.917 230.056 391.517 230.792 390.541 231.736L386.157 235.848V237H393.485V235.688H388.237L391.341 232.792C392.733 231.496 393.341 230.456 393.341 229.176C393.341 227.224 391.821 225.832 389.789 225.832ZM395.433 238.584H396.361L397.065 237.064C397.209 236.744 397.321 236.472 397.321 236.152C397.321 235.624 396.873 235.208 396.345 235.208C395.785 235.208 395.353 235.592 395.353 236.152C395.353 236.648 395.721 237 396.153 237H396.185L395.433 238.584ZM399.273 231.832L400.521 232.104C400.985 231.4 401.833 230.888 402.793 230.888C404.201 230.888 405.305 231.944 405.305 233.352C405.305 234.76 404.217 235.848 402.825 235.848C401.481 235.848 400.425 234.84 400.425 233.736H399.001C399.001 235.736 400.649 237.176 402.841 237.176C405.033 237.176 406.729 235.512 406.729 233.288C406.729 231.256 405.225 229.624 403.161 229.624C402.201 229.624 401.289 230.024 400.729 230.552L401.177 227.304H405.945V226.008H400.057L399.273 231.832Z" fill="#0272D5"/>
<line x1="303" y1="219.6" x2="380" y2="219.6" stroke="#0272D5" stroke-width="0.8" stroke-dasharray="3 2"/>
<line x1="303" y1="244.6" x2="380" y2="244.6" stroke="#0272D5" stroke-width="0.8" stroke-dasharray="3 2"/>
<line x1="105.3" y1="1.36707e-08" x2="105.3" y2="320" stroke="#BABABA" stroke-width="0.6"/>
<line x1="205.3" y1="1.36707e-08" x2="205.3" y2="320" stroke="#BABABA" stroke-width="0.6"/>
<line x1="325.3" y1="1.36707e-08" x2="325.3" y2="320" stroke="#BABABA" stroke-width="0.6"/>
<line x1="65.2998" y1="1.36707e-08" x2="65.2997" y2="320" stroke="#BABABA" stroke-width="0.6"/>
<line x1="165.3" y1="1.36707e-08" x2="165.3" y2="320" stroke="#BABABA" stroke-width="0.6"/>
<line x1="285.3" y1="1.36707e-08" x2="285.3" y2="320" stroke="#BABABA" stroke-width="0.6"/>
<line x1="125.3" y1="1.36707e-08" x2="125.3" y2="320" stroke="#BABABA" stroke-width="0.6"/>
<line x1="225.3" y1="1.36707e-08" x2="225.3" y2="320" stroke="#BABABA" stroke-width="0.6"/>
<line x1="345.3" y1="1.36707e-08" x2="345.3" y2="320" stroke="#BABABA" stroke-width="0.6"/>
<line x1="85.2998" y1="1.36707e-08" x2="85.2997" y2="320" stroke="#BABABA" stroke-width="0.6"/>
<line x1="185.3" y1="1.36707e-08" x2="185.3" y2="320" stroke="#BABABA" stroke-width="0.6"/>
<line x1="305.3" y1="1.36707e-08" x2="305.3" y2="320" stroke="#BABABA" stroke-width="0.6"/>
<line x1="145.3" y1="1.36707e-08" x2="145.3" y2="320" stroke="#BABABA" stroke-width="0.6"/>
<line x1="265.3" y1="1.36707e-08" x2="265.3" y2="320" stroke="#BABABA" stroke-width="0.6"/>
<line x1="245.3" y1="1.36707e-08" x2="245.3" y2="320" stroke="#BABABA" stroke-width="0.6"/>
<line x1="365" y1="60.3" x2="45" y2="60.3" stroke="#BABABA" stroke-width="0.6"/>
<line x1="365" y1="160.3" x2="45" y2="160.3" stroke="#BABABA" stroke-width="0.6"/>
<line x1="365" y1="280.3" x2="45" y2="280.3" stroke="#BABABA" stroke-width="0.6"/>
<line x1="365" y1="20.3" x2="45" y2="20.3" stroke="#BABABA" stroke-width="0.6"/>
<line x1="365" y1="120.3" x2="45" y2="120.3" stroke="#BABABA" stroke-width="0.6"/>
<line x1="365" y1="240.3" x2="45" y2="240.3" stroke="#BABABA" stroke-width="0.6"/>
<line x1="365" y1="80.3" x2="45" y2="80.3" stroke="#BABABA" stroke-width="0.6"/>
<line x1="365" y1="180.3" x2="45" y2="180.3" stroke="#BABABA" stroke-width="0.6"/>
<line x1="365" y1="300.3" x2="45" y2="300.3" stroke="#BABABA" stroke-width="0.6"/>
<line x1="365" y1="40.3" x2="45" y2="40.3" stroke="#BABABA" stroke-width="0.6"/>
<line x1="365" y1="140.3" x2="45" y2="140.3" stroke="#BABABA" stroke-width="0.6"/>
<line x1="365" y1="260.3" x2="45" y2="260.3" stroke="#BABABA" stroke-width="0.6"/>
<line x1="365" y1="100.3" x2="45" y2="100.3" stroke="#BABABA" stroke-width="0.6"/>
<line x1="365" y1="220.3" x2="45" y2="220.3" stroke="#BABABA" stroke-width="0.6"/>
<line x1="365" y1="200.3" x2="45" y2="200.3" stroke="#BABABA" stroke-width="0.6"/>
<rect x="45.3" y="0.3" width="319.4" height="319.4" stroke="#BABABA" stroke-width="0.6"/>
<path d="M315 134.6L265 100L198.6 150.6L165 120L95 169.8V220H315V134.6ZM290 194.6H120V182.8L163 152L181.8 169.2L197.2 183.2L213.8 170.6L265.6 130.6L290 147.4V194.6Z" fill="black" fill-opacity="0.1"/>
<path d="M111 130C119.837 130 127 123.284 127 115C127 106.716 119.837 100 111 100C102.163 100 95 106.716 95 115C95 123.284 102.163 130 111 130Z" fill="black" fill-opacity="0.1"/>
<path d="M340 50H70C63.3696 50 57.0107 52.6339 52.3223 57.3223C47.6339 62.0107 45 68.3696 45 75L45 245C45 251.63 47.6339 257.989 52.3223 262.678C57.0107 267.366 63.3696 270 70 270H340C346.63 270 352.989 267.366 357.678 262.678C362.366 257.989 365 251.63 365 245V75C365 68.3696 362.366 62.0107 357.678 57.3223C352.989 52.6339 346.63 50 340 50ZM340 245H70V75H340V245Z" fill="black" fill-opacity="0.1"/>
</svg>
