<svg width="784" height="218" viewBox="0 0 784 218" fill="none" xmlns="http://www.w3.org/2000/svg">
<line x1="40.9893" y1="0.678223" x2="40.9893" y2="217.689" stroke="#BABABA" stroke-width="0.6"/>
<line x1="108.805" y1="0.678223" x2="108.805" y2="217.689" stroke="#BABABA" stroke-width="0.6"/>
<line x1="190.184" y1="0.678223" x2="190.184" y2="217.689" stroke="#BABABA" stroke-width="0.6"/>
<line x1="13.8631" y1="0.678955" x2="13.8631" y2="217.689" stroke="#BABABA" stroke-width="0.6"/>
<line x1="81.6789" y1="0.678223" x2="81.6789" y2="217.689" stroke="#BABABA" stroke-width="0.6"/>
<line x1="163.058" y1="0.678223" x2="163.058" y2="217.689" stroke="#BABABA" stroke-width="0.6"/>
<line x1="54.5524" y1="0.678223" x2="54.5524" y2="217.689" stroke="#BABABA" stroke-width="0.6"/>
<line x1="122.368" y1="0.678223" x2="122.368" y2="217.689" stroke="#BABABA" stroke-width="0.6"/>
<line x1="203.747" y1="0.678223" x2="203.747" y2="217.689" stroke="#BABABA" stroke-width="0.6"/>
<line x1="27.4261" y1="0.678223" x2="27.4261" y2="217.689" stroke="#BABABA" stroke-width="0.6"/>
<line x1="95.242" y1="0.678223" x2="95.242" y2="217.689" stroke="#BABABA" stroke-width="0.6"/>
<line x1="176.621" y1="0.678223" x2="176.621" y2="217.689" stroke="#BABABA" stroke-width="0.6"/>
<line x1="68.1158" y1="0.678223" x2="68.1158" y2="217.689" stroke="#BABABA" stroke-width="0.6"/>
<line x1="149.495" y1="0.678223" x2="149.495" y2="217.689" stroke="#BABABA" stroke-width="0.6"/>
<line x1="135.931" y1="0.678223" x2="135.931" y2="217.689" stroke="#BABABA" stroke-width="0.6"/>
<line x1="217.01" y1="41.6677" x2="1.52325e-05" y2="41.6677" stroke="#BABABA" stroke-width="0.6"/>
<line x1="217.01" y1="109.483" x2="1.52325e-05" y2="109.483" stroke="#BABABA" stroke-width="0.6"/>
<line x1="217.01" y1="190.863" x2="1.52325e-05" y2="190.862" stroke="#BABABA" stroke-width="0.6"/>
<line x1="217.01" y1="14.5415" x2="1.52325e-05" y2="14.5414" stroke="#BABABA" stroke-width="0.6"/>
<line x1="217.01" y1="82.3571" x2="1.52325e-05" y2="82.3571" stroke="#BABABA" stroke-width="0.6"/>
<line x1="217.01" y1="163.736" x2="1.52325e-05" y2="163.736" stroke="#BABABA" stroke-width="0.6"/>
<line x1="217.01" y1="55.2309" x2="1.52325e-05" y2="55.2309" stroke="#BABABA" stroke-width="0.6"/>
<line x1="217.01" y1="123.047" x2="1.52325e-05" y2="123.047" stroke="#BABABA" stroke-width="0.6"/>
<line x1="217.01" y1="204.425" x2="1.52325e-05" y2="204.425" stroke="#BABABA" stroke-width="0.6"/>
<line x1="217.01" y1="28.1047" x2="1.52325e-05" y2="28.1047" stroke="#BABABA" stroke-width="0.6"/>
<line x1="217.01" y1="95.9201" x2="1.52325e-05" y2="95.9201" stroke="#BABABA" stroke-width="0.6"/>
<line x1="217.01" y1="177.299" x2="1.52325e-05" y2="177.299" stroke="#BABABA" stroke-width="0.6"/>
<line x1="217.01" y1="68.7939" x2="1.52325e-05" y2="68.7939" stroke="#BABABA" stroke-width="0.6"/>
<line x1="217.01" y1="150.173" x2="1.52325e-05" y2="150.173" stroke="#BABABA" stroke-width="0.6"/>
<line x1="217.01" y1="136.61" x2="1.52325e-05" y2="136.61" stroke="#BABABA" stroke-width="0.6"/>
<rect x="0.3" y="0.978223" width="216.411" height="216.411" stroke="#BABABA" stroke-width="0.6"/>
<path d="M108.505 7.95972C168.111 7.95972 216.51 53.4086 216.51 109.183C216.51 164.958 168.111 210.407 108.505 210.407C48.8991 210.407 0.5 164.958 0.5 109.183C0.5 53.4086 48.8991 7.95972 108.505 7.95972Z" stroke="#4195E0" stroke-miterlimit="10"/>
<path d="M7.28198 196.844V21.5229H209.729V196.844H7.28198Z" stroke="#4195E0" stroke-miterlimit="10"/>
<path d="M0.500366 183.281V35.0859H216.511V183.281H0.500366Z" stroke="#4195E0" stroke-miterlimit="10"/>
<path d="M182.603 217.188H34.4082L34.4082 1.17818H182.603V217.188Z" stroke="#4195E0" stroke-miterlimit="10"/>
<path d="M108.505 7.95972C168.111 7.95972 216.51 53.4086 216.51 109.183C216.51 164.958 168.111 210.407 108.505 210.407C48.8991 210.407 0.5 164.958 0.5 109.183C0.5 53.4086 48.8991 7.95972 108.505 7.95972Z" stroke="#4195E0" stroke-miterlimit="10"/>
<path d="M7.28198 196.844V21.5229H209.729V196.844H7.28198Z" stroke="#4195E0" stroke-miterlimit="10"/>
<path d="M0.500366 183.281V35.0859H216.511V183.281H0.500366Z" stroke="#4195E0" stroke-miterlimit="10"/>
<path d="M182.603 217.188H34.4082L34.4082 1.17818H182.603V217.188Z" stroke="#4195E0" stroke-miterlimit="10"/>
<path d="M216.141 100.755C211.553 48.6005 165.036 7.59814 108.273 7.59814C51.5111 7.59814 4.99412 48.6005 0.40603 100.755H0V117.692H0.40603C4.99412 169.846 51.5111 210.848 108.273 210.848C165.036 210.848 211.553 169.846 216.141 117.692H216.547V100.755H216.141ZM199.169 100.755H158.499C157.849 89.0744 155.873 77.5569 152.612 66.4323C161.152 62.828 169.096 58.221 176.283 52.7739C188.883 65.7955 197.193 82.4213 199.169 100.755ZM74.9523 100.755C75.5614 90.9985 77.2261 81.2832 79.9329 71.8117C88.9602 74.1016 98.4612 75.3482 108.26 75.3482C118.059 75.3482 127.533 74.1152 136.56 71.8252C139.253 81.2154 140.945 90.9172 141.554 100.755H74.9523ZM141.581 117.692C140.959 127.543 139.28 137.245 136.587 146.621C127.56 144.331 118.072 143.098 108.273 143.098C98.4747 143.098 88.9738 144.345 79.9464 146.635C77.2261 137.163 75.5614 127.462 74.9659 117.692H141.581ZM146.954 50.4297C143.774 42.8146 139.984 35.4299 135.585 28.4109C145.574 31.3242 154.831 35.7822 163.019 41.4868C158.039 44.942 152.652 47.9501 146.954 50.4297ZM112.144 24.6305C119.805 34.1697 126.071 44.671 130.849 55.7956C123.621 57.5029 116.056 58.4107 108.273 58.4107C100.478 58.4107 92.8987 57.4893 85.6579 55.782C90.3813 44.7929 96.6206 34.3052 104.389 24.6305C105.675 24.5763 106.961 24.5357 108.273 24.5357C109.573 24.5357 110.859 24.5763 112.144 24.6305ZM69.5657 50.4162C63.8814 47.9366 58.5083 44.942 53.5277 41.4732C61.7159 35.7686 70.9597 31.3107 80.948 28.4109C76.5088 35.4841 72.7192 42.8553 69.5657 50.4162ZM40.2507 52.7739C47.4373 58.221 55.3683 62.828 63.8949 66.4188C60.6196 77.6382 58.6572 89.1692 58.0211 100.755H17.3779C19.3539 82.4213 27.6639 65.7955 40.2507 52.7739ZM17.3779 117.692H58.0211C58.6572 129.277 60.6196 140.795 63.8949 152.028C55.3683 155.632 47.4238 160.226 40.2507 165.673C27.6639 152.651 19.3539 136.025 17.3779 117.692ZM69.5657 168.03C72.7327 175.591 76.5088 182.962 80.948 190.036C70.9597 187.122 61.7159 182.678 53.5277 176.973C58.4947 173.505 63.8678 170.51 69.5657 168.03ZM104.389 193.816C96.6206 184.141 90.3813 173.654 85.6579 162.665C92.8851 160.957 100.464 160.036 108.273 160.036C116.069 160.036 123.635 160.957 130.876 162.665C126.098 173.789 119.818 184.29 112.171 193.816C110.872 193.87 109.573 193.911 108.273 193.911C106.974 193.911 105.688 193.87 104.389 193.816ZM146.954 168.017C152.652 170.496 158.039 173.491 163.033 176.973C154.831 182.691 145.56 187.149 135.545 190.063C139.943 183.017 143.76 175.659 146.954 168.017ZM176.296 165.673C169.11 160.212 161.165 155.619 152.625 152.014C155.873 140.89 157.89 129.386 158.539 117.692H199.169C197.193 136.025 188.883 152.651 176.296 165.673Z" fill="#2C3357"/>
<line x1="324.484" y1="0.678223" x2="324.484" y2="217.689" stroke="#BABABA" stroke-width="0.6"/>
<line x1="392.3" y1="0.678223" x2="392.3" y2="217.689" stroke="#BABABA" stroke-width="0.6"/>
<line x1="473.679" y1="0.678223" x2="473.679" y2="217.689" stroke="#BABABA" stroke-width="0.6"/>
<line x1="297.357" y1="0.678955" x2="297.357" y2="217.689" stroke="#BABABA" stroke-width="0.6"/>
<line x1="365.173" y1="0.678223" x2="365.173" y2="217.689" stroke="#BABABA" stroke-width="0.6"/>
<line x1="446.552" y1="0.678223" x2="446.552" y2="217.689" stroke="#BABABA" stroke-width="0.6"/>
<line x1="338.047" y1="0.678223" x2="338.047" y2="217.689" stroke="#BABABA" stroke-width="0.6"/>
<line x1="405.863" y1="0.678223" x2="405.863" y2="217.689" stroke="#BABABA" stroke-width="0.6"/>
<line x1="487.242" y1="0.678223" x2="487.242" y2="217.689" stroke="#BABABA" stroke-width="0.6"/>
<line x1="310.921" y1="0.678223" x2="310.921" y2="217.689" stroke="#BABABA" stroke-width="0.6"/>
<line x1="378.736" y1="0.678223" x2="378.736" y2="217.689" stroke="#BABABA" stroke-width="0.6"/>
<line x1="460.115" y1="0.678223" x2="460.115" y2="217.689" stroke="#BABABA" stroke-width="0.6"/>
<line x1="351.61" y1="0.678223" x2="351.61" y2="217.689" stroke="#BABABA" stroke-width="0.6"/>
<line x1="432.989" y1="0.678223" x2="432.989" y2="217.689" stroke="#BABABA" stroke-width="0.6"/>
<line x1="419.426" y1="0.678223" x2="419.426" y2="217.689" stroke="#BABABA" stroke-width="0.6"/>
<line x1="500.505" y1="41.6677" x2="283.494" y2="41.6677" stroke="#BABABA" stroke-width="0.6"/>
<line x1="500.505" y1="109.483" x2="283.494" y2="109.483" stroke="#BABABA" stroke-width="0.6"/>
<line x1="500.505" y1="190.863" x2="283.494" y2="190.862" stroke="#BABABA" stroke-width="0.6"/>
<line x1="500.505" y1="14.5415" x2="283.494" y2="14.5414" stroke="#BABABA" stroke-width="0.6"/>
<line x1="500.505" y1="82.3571" x2="283.494" y2="82.3571" stroke="#BABABA" stroke-width="0.6"/>
<line x1="500.505" y1="163.736" x2="283.494" y2="163.736" stroke="#BABABA" stroke-width="0.6"/>
<line x1="500.505" y1="55.2309" x2="283.494" y2="55.2309" stroke="#BABABA" stroke-width="0.6"/>
<line x1="500.505" y1="123.047" x2="283.494" y2="123.047" stroke="#BABABA" stroke-width="0.6"/>
<line x1="500.505" y1="204.425" x2="283.494" y2="204.425" stroke="#BABABA" stroke-width="0.6"/>
<line x1="500.505" y1="28.1047" x2="283.494" y2="28.1047" stroke="#BABABA" stroke-width="0.6"/>
<line x1="500.505" y1="95.9201" x2="283.494" y2="95.9201" stroke="#BABABA" stroke-width="0.6"/>
<line x1="500.505" y1="177.299" x2="283.494" y2="177.299" stroke="#BABABA" stroke-width="0.6"/>
<line x1="500.505" y1="68.7941" x2="283.494" y2="68.7941" stroke="#BABABA" stroke-width="0.6"/>
<line x1="500.505" y1="150.173" x2="283.494" y2="150.173" stroke="#BABABA" stroke-width="0.6"/>
<line x1="500.505" y1="136.61" x2="283.494" y2="136.61" stroke="#BABABA" stroke-width="0.6"/>
<rect x="283.794" y="0.978223" width="216.411" height="216.411" stroke="#BABABA" stroke-width="0.6"/>
<path d="M392 7.95972C451.606 7.95972 500.005 53.4086 500.005 109.183C500.005 164.958 451.606 210.407 392 210.407C332.393 210.407 283.994 164.958 283.994 109.183C283.994 53.4086 332.393 7.95972 392 7.95972Z" stroke="#4195E0" stroke-miterlimit="10"/>
<path d="M290.776 196.844V21.5229H493.223V196.844H290.776Z" stroke="#4195E0" stroke-miterlimit="10"/>
<path d="M283.995 183.281V35.0859H500.005V183.281H283.995Z" stroke="#4195E0" stroke-miterlimit="10"/>
<path d="M466.097 217.188H317.903V1.17818H466.097V217.188Z" stroke="#4195E0" stroke-miterlimit="10"/>
<path d="M392 7.95972C451.606 7.95972 500.005 53.4086 500.005 109.183C500.005 164.958 451.606 210.407 392 210.407C332.393 210.407 283.994 164.958 283.994 109.183C283.994 53.4086 332.393 7.95972 392 7.95972Z" stroke="#4195E0" stroke-miterlimit="10"/>
<path d="M290.776 196.844V21.5229H493.223V196.844H290.776Z" stroke="#4195E0" stroke-miterlimit="10"/>
<path d="M283.995 183.281V35.0859H500.005V183.281H283.995Z" stroke="#4195E0" stroke-miterlimit="10"/>
<path d="M466.097 217.188H317.903V1.17818H466.097V217.188Z" stroke="#4195E0" stroke-miterlimit="10"/>
<path fill-rule="evenodd" clip-rule="evenodd" d="M358.892 121.464H334.234V146.409H358.892V121.464ZM317.402 104.437V163.436H375.724V104.437H317.402Z" fill="#2C3357"/>
<path fill-rule="evenodd" clip-rule="evenodd" d="M449.972 183.781V137.433C449.972 128.603 442.689 121.445 433.706 121.445C424.723 121.445 417.441 128.603 417.441 137.433V183.781H400.138V137.433C400.138 119.209 415.167 104.437 433.706 104.437C452.246 104.437 467.275 119.209 467.275 137.433V183.781H449.972Z" fill="#2C3357"/>
<path d="M317.402 69.1721H467.275V86.8042H317.402V69.1721Z" fill="#2C3357"/>
<path fill-rule="evenodd" clip-rule="evenodd" d="M308.945 51.5592C304.26 51.5592 300.462 55.3588 300.462 60.0458V183.781H283.494V60.0458C283.494 45.9847 294.889 34.5859 308.945 34.5859H475.054C489.11 34.5859 500.505 45.9847 500.505 60.0458V183.781H483.538V60.0458C483.538 55.3588 479.74 51.5592 475.054 51.5592H308.945Z" fill="#2C3357"/>
<line x1="607.979" y1="0.678223" x2="607.979" y2="217.689" stroke="#BABABA" stroke-width="0.6"/>
<line x1="675.795" y1="0.678223" x2="675.795" y2="217.689" stroke="#BABABA" stroke-width="0.6"/>
<line x1="757.174" y1="0.678223" x2="757.174" y2="217.689" stroke="#BABABA" stroke-width="0.6"/>
<line x1="580.853" y1="0.678955" x2="580.853" y2="217.689" stroke="#BABABA" stroke-width="0.6"/>
<line x1="648.668" y1="0.678223" x2="648.668" y2="217.689" stroke="#BABABA" stroke-width="0.6"/>
<line x1="730.047" y1="0.678223" x2="730.047" y2="217.689" stroke="#BABABA" stroke-width="0.6"/>
<line x1="621.542" y1="0.678223" x2="621.542" y2="217.689" stroke="#BABABA" stroke-width="0.6"/>
<line x1="689.358" y1="0.678223" x2="689.358" y2="217.689" stroke="#BABABA" stroke-width="0.6"/>
<line x1="770.737" y1="0.678223" x2="770.737" y2="217.689" stroke="#BABABA" stroke-width="0.6"/>
<line x1="594.416" y1="0.678223" x2="594.416" y2="217.689" stroke="#BABABA" stroke-width="0.6"/>
<line x1="662.232" y1="0.678223" x2="662.232" y2="217.689" stroke="#BABABA" stroke-width="0.6"/>
<line x1="743.611" y1="0.678223" x2="743.611" y2="217.689" stroke="#BABABA" stroke-width="0.6"/>
<line x1="635.105" y1="0.678223" x2="635.105" y2="217.689" stroke="#BABABA" stroke-width="0.6"/>
<line x1="716.484" y1="0.678223" x2="716.484" y2="217.689" stroke="#BABABA" stroke-width="0.6"/>
<line x1="702.921" y1="0.678223" x2="702.921" y2="217.689" stroke="#BABABA" stroke-width="0.6"/>
<line x1="784" y1="41.6677" x2="566.99" y2="41.6677" stroke="#BABABA" stroke-width="0.6"/>
<line x1="784" y1="109.483" x2="566.99" y2="109.483" stroke="#BABABA" stroke-width="0.6"/>
<line x1="784" y1="190.863" x2="566.99" y2="190.862" stroke="#BABABA" stroke-width="0.6"/>
<line x1="784" y1="14.5415" x2="566.989" y2="14.5414" stroke="#BABABA" stroke-width="0.6"/>
<line x1="784" y1="82.3571" x2="566.99" y2="82.3571" stroke="#BABABA" stroke-width="0.6"/>
<line x1="784" y1="163.736" x2="566.99" y2="163.736" stroke="#BABABA" stroke-width="0.6"/>
<line x1="784" y1="55.2309" x2="566.99" y2="55.2309" stroke="#BABABA" stroke-width="0.6"/>
<line x1="784" y1="123.047" x2="566.99" y2="123.047" stroke="#BABABA" stroke-width="0.6"/>
<line x1="784" y1="204.425" x2="566.99" y2="204.425" stroke="#BABABA" stroke-width="0.6"/>
<line x1="784" y1="28.1047" x2="566.99" y2="28.1047" stroke="#BABABA" stroke-width="0.6"/>
<line x1="784" y1="95.9201" x2="566.99" y2="95.9201" stroke="#BABABA" stroke-width="0.6"/>
<line x1="784" y1="177.299" x2="566.99" y2="177.299" stroke="#BABABA" stroke-width="0.6"/>
<line x1="784" y1="68.7941" x2="566.99" y2="68.7941" stroke="#BABABA" stroke-width="0.6"/>
<line x1="784" y1="150.173" x2="566.99" y2="150.173" stroke="#BABABA" stroke-width="0.6"/>
<line x1="784" y1="136.61" x2="566.99" y2="136.61" stroke="#BABABA" stroke-width="0.6"/>
<rect x="567.289" y="0.978955" width="216.411" height="216.411" stroke="#BABABA" stroke-width="0.6"/>
<path d="M675.494 7.95972C735.1 7.95972 783.499 53.4086 783.499 109.183C783.499 164.958 735.1 210.407 675.494 210.407C615.888 210.407 567.489 164.958 567.489 109.183C567.489 53.4086 615.888 7.95972 675.494 7.95972Z" stroke="#4195E0" stroke-miterlimit="10"/>
<path d="M574.271 196.844V21.5229H776.718V196.844H574.271Z" stroke="#4195E0" stroke-miterlimit="10"/>
<path d="M567.49 183.281V35.0859H783.5V183.281H567.49Z" stroke="#4195E0" stroke-miterlimit="10"/>
<path d="M749.592 217.188H601.397V1.17818H749.592V217.188Z" stroke="#4195E0" stroke-miterlimit="10"/>
<path d="M675.494 7.95972C735.1 7.95972 783.499 53.4086 783.499 109.183C783.499 164.958 735.1 210.407 675.494 210.407C615.888 210.407 567.489 164.958 567.489 109.183C567.489 53.4086 615.888 7.95972 675.494 7.95972Z" stroke="#4195E0" stroke-miterlimit="10"/>
<path d="M574.271 196.844V21.5229H776.718V196.844H574.271Z" stroke="#4195E0" stroke-miterlimit="10"/>
<path d="M567.49 183.281V35.0859H783.5V183.281H567.49Z" stroke="#4195E0" stroke-miterlimit="10"/>
<path d="M749.592 217.188H601.397V1.17818H749.592V217.188Z" stroke="#4195E0" stroke-miterlimit="10"/>
<path fill-rule="evenodd" clip-rule="evenodd" d="M699.23 57.6434H651.759V166.149H699.23V57.6434ZM634.805 40.6895V183.103H716.184V40.6895H634.805Z" fill="#2C3357"/>
<path fill-rule="evenodd" clip-rule="evenodd" d="M685.667 40.6895V27.1263C685.667 21.5083 681.112 16.954 675.494 16.954C669.876 16.954 665.322 21.5083 665.322 27.1263V40.6895H685.667ZM675.494 0C660.513 0 648.368 12.1449 648.368 27.1263V57.6435H702.62V27.1263C702.62 12.1449 690.476 0 675.494 0Z" fill="#2C3357"/>
<path fill-rule="evenodd" clip-rule="evenodd" d="M743.988 57.6436H715.505V92.3902L743.988 75.5958V57.6436ZM752.599 90.2C757.769 87.1517 760.942 81.5974 760.942 75.5958V40.6896H698.551V122.069L752.599 90.2Z" fill="#2C3357"/>
<path fill-rule="evenodd" clip-rule="evenodd" d="M657.072 114.183C642.953 101.861 634.735 83.0828 634.735 57.7794L651.689 57.7794C651.689 79.2306 658.51 92.9356 668.22 101.409C678.131 110.058 692.214 114.27 708.451 114.27V131.224C689.526 131.224 670.991 126.329 657.072 114.183Z" fill="#2C3357"/>
<path fill-rule="evenodd" clip-rule="evenodd" d="M760.942 67.8159L779.074 58.1728C782.105 56.5608 783.999 53.4079 783.999 49.9748C783.999 45.9646 781.457 42.5482 777.896 41.2492C776.904 40.8871 775.832 40.6896 774.714 40.6896H760.942V67.8159Z" fill="#2C3357"/>
<path fill-rule="evenodd" clip-rule="evenodd" d="M607 57.6436H634.126V92.0543L607 75.7042V57.6436ZM598.248 90.2245C593.158 87.1565 590.046 81.6473 590.046 75.7042V40.6896H651.08V122.069L598.248 90.2245Z" fill="#2C3357"/>
<path fill-rule="evenodd" clip-rule="evenodd" d="M571.911 58.1743C568.882 56.5612 566.989 53.4089 566.989 49.9768C566.989 45.9767 569.518 42.5672 573.064 41.26C574.065 40.8911 575.147 40.6896 576.276 40.6896H590.018V67.8159L571.911 58.1743Z" fill="#2C3357"/>
<path fill-rule="evenodd" clip-rule="evenodd" d="M733.137 183.103H617.851V200.057H733.137V183.103ZM617.851 166.149C608.487 166.149 600.897 173.739 600.897 183.103V217.011H750.091V183.103C750.091 173.739 742.501 166.149 733.137 166.149H617.851Z" fill="#2C3357"/>
</svg>
