<svg width="320" height="320" viewBox="0 0 320 320" fill="none" xmlns="http://www.w3.org/2000/svg">
<line x1="60.2998" y1="1.36707e-08" x2="60.2997" y2="320" stroke="#BABABA" stroke-width="0.6"/>
<line x1="160.3" y1="1.36707e-08" x2="160.3" y2="320" stroke="#BABABA" stroke-width="0.6"/>
<line x1="280.3" y1="1.36707e-08" x2="280.3" y2="320" stroke="#BABABA" stroke-width="0.6"/>
<line x1="20.2998" y1="1.36707e-08" x2="20.2997" y2="320" stroke="#BABABA" stroke-width="0.6"/>
<line x1="120.3" y1="1.36707e-08" x2="120.3" y2="320" stroke="#BABABA" stroke-width="0.6"/>
<line x1="240.3" y1="1.36707e-08" x2="240.3" y2="320" stroke="#BABABA" stroke-width="0.6"/>
<line x1="80.2998" y1="1.36707e-08" x2="80.2997" y2="320" stroke="#BABABA" stroke-width="0.6"/>
<line x1="180.3" y1="1.36707e-08" x2="180.3" y2="320" stroke="#BABABA" stroke-width="0.6"/>
<line x1="300.3" y1="1.36707e-08" x2="300.3" y2="320" stroke="#BABABA" stroke-width="0.6"/>
<line x1="40.2998" y1="1.36707e-08" x2="40.2997" y2="320" stroke="#BABABA" stroke-width="0.6"/>
<line x1="140.3" y1="1.36707e-08" x2="140.3" y2="320" stroke="#BABABA" stroke-width="0.6"/>
<line x1="260.3" y1="1.36707e-08" x2="260.3" y2="320" stroke="#BABABA" stroke-width="0.6"/>
<line x1="100.3" y1="1.36707e-08" x2="100.3" y2="320" stroke="#BABABA" stroke-width="0.6"/>
<line x1="220.3" y1="1.36707e-08" x2="220.3" y2="320" stroke="#BABABA" stroke-width="0.6"/>
<line x1="200.3" y1="1.36707e-08" x2="200.3" y2="320" stroke="#BABABA" stroke-width="0.6"/>
<line x1="320" y1="60.3" x2="-2.63093e-08" y2="60.3" stroke="#BABABA" stroke-width="0.6"/>
<line x1="320" y1="160.3" x2="-2.63093e-08" y2="160.3" stroke="#BABABA" stroke-width="0.6"/>
<line x1="320" y1="280.3" x2="-2.63093e-08" y2="280.3" stroke="#BABABA" stroke-width="0.6"/>
<line x1="320" y1="20.3" x2="-2.63093e-08" y2="20.3" stroke="#BABABA" stroke-width="0.6"/>
<line x1="320" y1="120.3" x2="-2.63093e-08" y2="120.3" stroke="#BABABA" stroke-width="0.6"/>
<line x1="320" y1="240.3" x2="-2.63093e-08" y2="240.3" stroke="#BABABA" stroke-width="0.6"/>
<line x1="320" y1="80.3" x2="-2.63093e-08" y2="80.3" stroke="#BABABA" stroke-width="0.6"/>
<line x1="320" y1="180.3" x2="-2.63093e-08" y2="180.3" stroke="#BABABA" stroke-width="0.6"/>
<line x1="320" y1="300.3" x2="-2.63093e-08" y2="300.3" stroke="#BABABA" stroke-width="0.6"/>
<line x1="320" y1="40.3" x2="-2.63093e-08" y2="40.3" stroke="#BABABA" stroke-width="0.6"/>
<line x1="320" y1="140.3" x2="-2.63093e-08" y2="140.3" stroke="#BABABA" stroke-width="0.6"/>
<line x1="320" y1="260.3" x2="-2.63093e-08" y2="260.3" stroke="#BABABA" stroke-width="0.6"/>
<line x1="320" y1="100.3" x2="-2.63093e-08" y2="100.3" stroke="#BABABA" stroke-width="0.6"/>
<line x1="320" y1="220.3" x2="-2.63093e-08" y2="220.3" stroke="#BABABA" stroke-width="0.6"/>
<line x1="320" y1="200.3" x2="-2.63093e-08" y2="200.3" stroke="#BABABA" stroke-width="0.6"/>
<rect x="0.3" y="0.3" width="319.4" height="319.4" stroke="#BABABA" stroke-width="0.6"/>
<path d="M50.5004 295L50.5004 25C50.5004 11.4691 61.4694 0.5 75.0004 0.5H245C258.531 0.5 269.5 11.469 269.5 25V294.999C269.5 308.53 258.531 319.5 245 319.5H75.0004C61.4694 319.5 50.5004 308.53 50.5004 295Z" stroke="#4195E0" stroke-miterlimit="10"/>
</svg>
