<svg width="320" height="353" viewBox="0 0 320 353" fill="none" xmlns="http://www.w3.org/2000/svg">
<path fill-rule="evenodd" clip-rule="evenodd" d="M21.9563 11C21.9563 15.8052 17.6573 19.9881 11.9841 19.9881C6.31086 19.9881 2.01193 15.8052 2.01193 11C2.01193 6.19484 6.31086 2.01193 11.9841 2.01193C17.6573 2.01193 21.9563 6.19484 21.9563 11ZM23.9682 11C23.9682 17.0751 18.6027 22 11.9841 22C5.36546 22 0 17.0751 0 11C0 4.92487 5.36546 0 11.9841 0C18.6027 0 23.9682 4.92487 23.9682 11ZM7.40846 5.63281L11.9719 9.68624L16.5353 5.63281L17.8617 7.12613L13.4757 11.022L17.8617 14.9178L16.5352 16.4111L11.9719 12.3578L7.40852 16.4111L6.08209 14.9178L10.4681 11.022L6.08203 7.12613L7.40846 5.63281Z" fill="#FF0000"/>
<line x1="60.2998" y1="32" x2="60.2997" y2="352" stroke="#BABABA" stroke-width="0.6"/>
<line x1="160.3" y1="32" x2="160.3" y2="352" stroke="#BABABA" stroke-width="0.6"/>
<line x1="280.3" y1="32" x2="280.3" y2="352" stroke="#BABABA" stroke-width="0.6"/>
<line x1="20.2998" y1="32" x2="20.2997" y2="352" stroke="#BABABA" stroke-width="0.6"/>
<line x1="120.3" y1="32" x2="120.3" y2="352" stroke="#BABABA" stroke-width="0.6"/>
<line x1="240.3" y1="32" x2="240.3" y2="352" stroke="#BABABA" stroke-width="0.6"/>
<line x1="80.2998" y1="32" x2="80.2997" y2="352" stroke="#BABABA" stroke-width="0.6"/>
<line x1="180.3" y1="32" x2="180.3" y2="352" stroke="#BABABA" stroke-width="0.6"/>
<line x1="300.3" y1="32" x2="300.3" y2="352" stroke="#BABABA" stroke-width="0.6"/>
<line x1="40.2998" y1="32" x2="40.2997" y2="352" stroke="#BABABA" stroke-width="0.6"/>
<line x1="140.3" y1="32" x2="140.3" y2="352" stroke="#BABABA" stroke-width="0.6"/>
<line x1="260.3" y1="32" x2="260.3" y2="352" stroke="#BABABA" stroke-width="0.6"/>
<line x1="100.3" y1="32" x2="100.3" y2="352" stroke="#BABABA" stroke-width="0.6"/>
<line x1="220.3" y1="32" x2="220.3" y2="352" stroke="#BABABA" stroke-width="0.6"/>
<line x1="200.3" y1="32" x2="200.3" y2="352" stroke="#BABABA" stroke-width="0.6"/>
<line x1="320" y1="92.3" x2="-2.63093e-08" y2="92.3" stroke="#BABABA" stroke-width="0.6"/>
<line x1="320" y1="192.3" x2="-2.63093e-08" y2="192.3" stroke="#BABABA" stroke-width="0.6"/>
<line x1="320" y1="312.3" x2="-2.63093e-08" y2="312.3" stroke="#BABABA" stroke-width="0.6"/>
<line x1="320" y1="52.3" x2="-2.63093e-08" y2="52.3" stroke="#BABABA" stroke-width="0.6"/>
<line x1="320" y1="152.3" x2="-2.63093e-08" y2="152.3" stroke="#BABABA" stroke-width="0.6"/>
<line x1="320" y1="272.3" x2="-2.63093e-08" y2="272.3" stroke="#BABABA" stroke-width="0.6"/>
<line x1="320" y1="112.3" x2="-2.63093e-08" y2="112.3" stroke="#BABABA" stroke-width="0.6"/>
<line x1="320" y1="212.3" x2="-2.63093e-08" y2="212.3" stroke="#BABABA" stroke-width="0.6"/>
<line x1="320" y1="332.3" x2="-2.63093e-08" y2="332.3" stroke="#BABABA" stroke-width="0.6"/>
<line x1="320" y1="72.3" x2="-2.63093e-08" y2="72.3" stroke="#BABABA" stroke-width="0.6"/>
<line x1="320" y1="172.3" x2="-2.63093e-08" y2="172.3" stroke="#BABABA" stroke-width="0.6"/>
<line x1="320" y1="292.3" x2="-2.63093e-08" y2="292.3" stroke="#BABABA" stroke-width="0.6"/>
<line x1="320" y1="132.3" x2="-2.63093e-08" y2="132.3" stroke="#BABABA" stroke-width="0.6"/>
<line x1="320" y1="252.3" x2="-2.63093e-08" y2="252.3" stroke="#BABABA" stroke-width="0.6"/>
<line x1="320" y1="232.3" x2="-2.63093e-08" y2="232.3" stroke="#BABABA" stroke-width="0.6"/>
<rect x="0.3" y="32.3" width="319.4" height="319.4" stroke="#BABABA" stroke-width="0.6"/>
<path fill-rule="evenodd" clip-rule="evenodd" d="M270 133H295C308.8 133 320 144.2 320 158V328C320 341.8 308.8 353 295 353H25C11.2 353 0 341.8 0 328V158C0 144.2 11.2 133 25 133H50C50.4 78 99.4 33 160 33C220.6 33 269.8 78 270 133ZM245 133C244.6 91.8 206.6 58 160 58C113.4 58 75.4 91.8 75 133H245ZM145 284.6V256C134.8 251 128 241 128 229.6C128 213 142.4 199.6 160 199.6C177.6 199.6 192 213 192 229.6C192 241 185.2 251 175 256V284.6H145Z" fill="#2C3357"/>
</svg>
