<svg width="320" height="354" viewBox="0 0 320 354" fill="none" xmlns="http://www.w3.org/2000/svg">
<path d="M12 0.959961C5.37 0.959961 0 5.90996 0 12C0 18.09 5.37 23.04 12 23.04C18.63 23.04 24 18.09 24 12C24 5.90996 18.63 0.959961 12 0.959961ZM19.185 18.39C18.2495 19.2503 17.1606 19.927 15.975 20.385C13.4156 21.3651 10.5844 21.3651 8.025 20.385C6.83943 19.927 5.75052 19.2503 4.815 18.39C3.91316 17.5859 3.18966 16.602 2.69106 15.5014C2.19246 14.4009 1.92981 13.2081 1.92 12C1.92981 10.7918 2.19246 9.59904 2.69106 8.4985C3.18966 7.39796 3.91316 6.414 4.815 5.60996C5.75052 4.74967 6.83943 4.07291 8.025 3.61496C10.5844 2.63485 13.4156 2.63485 15.975 3.61496C17.1606 4.07291 18.2495 4.74967 19.185 5.60996C20.0868 6.414 20.8103 7.39796 21.3089 8.4985C21.8075 9.59904 22.0702 10.7918 22.08 12C22.0702 13.2081 21.8075 14.4009 21.3089 15.5014C20.8103 16.602 20.0868 17.5859 19.185 18.39Z" fill="#00C566"/>
<path d="M10.56 14.07L7.36501 10.875L6.01501 12.225L10.575 16.785L18.945 8.38502L17.58 7.02002L10.56 14.07Z" fill="#00C566"/>
<line x1="60.2998" y1="34" x2="60.2997" y2="354" stroke="#BABABA" stroke-width="0.6"/>
<line x1="160.3" y1="34" x2="160.3" y2="354" stroke="#BABABA" stroke-width="0.6"/>
<line x1="280.3" y1="34" x2="280.3" y2="354" stroke="#BABABA" stroke-width="0.6"/>
<line x1="20.2998" y1="34" x2="20.2997" y2="354" stroke="#BABABA" stroke-width="0.6"/>
<line x1="120.3" y1="34" x2="120.3" y2="354" stroke="#BABABA" stroke-width="0.6"/>
<line x1="240.3" y1="34" x2="240.3" y2="354" stroke="#BABABA" stroke-width="0.6"/>
<line x1="80.2998" y1="34" x2="80.2997" y2="354" stroke="#BABABA" stroke-width="0.6"/>
<line x1="180.3" y1="34" x2="180.3" y2="354" stroke="#BABABA" stroke-width="0.6"/>
<line x1="300.3" y1="34" x2="300.3" y2="354" stroke="#BABABA" stroke-width="0.6"/>
<line x1="40.2998" y1="34" x2="40.2997" y2="354" stroke="#BABABA" stroke-width="0.6"/>
<line x1="140.3" y1="34" x2="140.3" y2="354" stroke="#BABABA" stroke-width="0.6"/>
<line x1="260.3" y1="34" x2="260.3" y2="354" stroke="#BABABA" stroke-width="0.6"/>
<line x1="100.3" y1="34" x2="100.3" y2="354" stroke="#BABABA" stroke-width="0.6"/>
<line x1="220.3" y1="34" x2="220.3" y2="354" stroke="#BABABA" stroke-width="0.6"/>
<line x1="200.3" y1="34" x2="200.3" y2="354" stroke="#BABABA" stroke-width="0.6"/>
<line x1="320" y1="94.3" x2="-2.63093e-08" y2="94.3" stroke="#BABABA" stroke-width="0.6"/>
<line x1="320" y1="194.3" x2="-2.63093e-08" y2="194.3" stroke="#BABABA" stroke-width="0.6"/>
<line x1="320" y1="314.3" x2="-2.63093e-08" y2="314.3" stroke="#BABABA" stroke-width="0.6"/>
<line x1="320" y1="54.3" x2="-2.63093e-08" y2="54.3" stroke="#BABABA" stroke-width="0.6"/>
<line x1="320" y1="154.3" x2="-2.63093e-08" y2="154.3" stroke="#BABABA" stroke-width="0.6"/>
<line x1="320" y1="274.3" x2="-2.63093e-08" y2="274.3" stroke="#BABABA" stroke-width="0.6"/>
<line x1="320" y1="114.3" x2="-2.63093e-08" y2="114.3" stroke="#BABABA" stroke-width="0.6"/>
<line x1="320" y1="214.3" x2="-2.63093e-08" y2="214.3" stroke="#BABABA" stroke-width="0.6"/>
<line x1="320" y1="334.3" x2="-2.63093e-08" y2="334.3" stroke="#BABABA" stroke-width="0.6"/>
<line x1="320" y1="74.3" x2="-2.63093e-08" y2="74.3" stroke="#BABABA" stroke-width="0.6"/>
<line x1="320" y1="174.3" x2="-2.63093e-08" y2="174.3" stroke="#BABABA" stroke-width="0.6"/>
<line x1="320" y1="294.3" x2="-2.63093e-08" y2="294.3" stroke="#BABABA" stroke-width="0.6"/>
<line x1="320" y1="134.3" x2="-2.63093e-08" y2="134.3" stroke="#BABABA" stroke-width="0.6"/>
<line x1="320" y1="254.3" x2="-2.63093e-08" y2="254.3" stroke="#BABABA" stroke-width="0.6"/>
<line x1="320" y1="234.3" x2="-2.63093e-08" y2="234.3" stroke="#BABABA" stroke-width="0.6"/>
<rect x="0.3" y="34.3" width="319.4" height="319.4" stroke="#BABABA" stroke-width="0.6"/>
<path d="M145 257V285.6H175V257C185.2 252 192 242 192 230.6C192 214 177.6 200.6 160 200.6C142.4 200.6 128 214 128 230.6C128 242 134.8 252 145 257Z" fill="#2C3357"/>
<path d="M295 133H270C269.8 78 220.6 33 160 33C99.4 33 50.4 78 50 133H25C11.2 133 0 144.2 0 158V328C0 341.8 11.2 353 25 353H295C308.8 353 320 341.8 320 328V158C320 144.2 308.8 133 295 133ZM160 58C206.6 58 244.6 91.8 245 133H75C75.4 91.8 113.4 58 160 58ZM295 328H25V158H295V328Z" fill="#2C3357"/>
</svg>
