<svg width="320" height="352" viewBox="0 0 320 352" fill="none" xmlns="http://www.w3.org/2000/svg">
<line x1="60.2998" y1="32" x2="60.2997" y2="352" stroke="#BABABA" stroke-width="0.6"/>
<line x1="160.3" y1="32" x2="160.3" y2="352" stroke="#BABABA" stroke-width="0.6"/>
<line x1="280.3" y1="32" x2="280.3" y2="352" stroke="#BABABA" stroke-width="0.6"/>
<line x1="20.2998" y1="32" x2="20.2997" y2="352" stroke="#BABABA" stroke-width="0.6"/>
<line x1="120.3" y1="32" x2="120.3" y2="352" stroke="#BABABA" stroke-width="0.6"/>
<line x1="240.3" y1="32" x2="240.3" y2="352" stroke="#BABABA" stroke-width="0.6"/>
<line x1="80.2998" y1="32" x2="80.2997" y2="352" stroke="#BABABA" stroke-width="0.6"/>
<line x1="180.3" y1="32" x2="180.3" y2="352" stroke="#BABABA" stroke-width="0.6"/>
<line x1="300.3" y1="32" x2="300.3" y2="352" stroke="#BABABA" stroke-width="0.6"/>
<line x1="40.2998" y1="32" x2="40.2997" y2="352" stroke="#BABABA" stroke-width="0.6"/>
<line x1="140.3" y1="32" x2="140.3" y2="352" stroke="#BABABA" stroke-width="0.6"/>
<line x1="260.3" y1="32" x2="260.3" y2="352" stroke="#BABABA" stroke-width="0.6"/>
<line x1="100.3" y1="32" x2="100.3" y2="352" stroke="#BABABA" stroke-width="0.6"/>
<line x1="220.3" y1="32" x2="220.3" y2="352" stroke="#BABABA" stroke-width="0.6"/>
<line x1="200.3" y1="32" x2="200.3" y2="352" stroke="#BABABA" stroke-width="0.6"/>
<line x1="320" y1="92.3" x2="-2.63093e-08" y2="92.3" stroke="#BABABA" stroke-width="0.6"/>
<line x1="320" y1="192.3" x2="-2.63093e-08" y2="192.3" stroke="#BABABA" stroke-width="0.6"/>
<line x1="320" y1="312.3" x2="-2.63093e-08" y2="312.3" stroke="#BABABA" stroke-width="0.6"/>
<line x1="320" y1="52.3" x2="-2.63093e-08" y2="52.3" stroke="#BABABA" stroke-width="0.6"/>
<line x1="320" y1="152.3" x2="-2.63093e-08" y2="152.3" stroke="#BABABA" stroke-width="0.6"/>
<line x1="320" y1="272.3" x2="-2.63093e-08" y2="272.3" stroke="#BABABA" stroke-width="0.6"/>
<line x1="320" y1="112.3" x2="-2.63093e-08" y2="112.3" stroke="#BABABA" stroke-width="0.6"/>
<line x1="320" y1="212.3" x2="-2.63093e-08" y2="212.3" stroke="#BABABA" stroke-width="0.6"/>
<line x1="320" y1="332.3" x2="-2.63093e-08" y2="332.3" stroke="#BABABA" stroke-width="0.6"/>
<line x1="320" y1="72.3" x2="-2.63093e-08" y2="72.3" stroke="#BABABA" stroke-width="0.6"/>
<line x1="320" y1="172.3" x2="-2.63093e-08" y2="172.3" stroke="#BABABA" stroke-width="0.6"/>
<line x1="320" y1="292.3" x2="-2.63093e-08" y2="292.3" stroke="#BABABA" stroke-width="0.6"/>
<line x1="320" y1="132.3" x2="-2.63093e-08" y2="132.3" stroke="#BABABA" stroke-width="0.6"/>
<line x1="320" y1="252.3" x2="-2.63093e-08" y2="252.3" stroke="#BABABA" stroke-width="0.6"/>
<line x1="320" y1="232.3" x2="-2.63093e-08" y2="232.3" stroke="#BABABA" stroke-width="0.6"/>
<rect x="0.3" y="32.3" width="319.4" height="319.4" stroke="#BABABA" stroke-width="0.6"/>
<path fill-rule="evenodd" clip-rule="evenodd" d="M21.9563 11C21.9563 15.8052 17.6573 19.9881 11.9841 19.9881C6.31086 19.9881 2.01193 15.8052 2.01193 11C2.01193 6.19484 6.31086 2.01193 11.9841 2.01193C17.6573 2.01193 21.9563 6.19484 21.9563 11ZM23.9682 11C23.9682 17.0751 18.6027 22 11.9841 22C5.36546 22 0 17.0751 0 11C0 4.92487 5.36546 0 11.9841 0C18.6027 0 23.9682 4.92487 23.9682 11ZM7.40846 5.63281L11.9719 9.68624L16.5353 5.63281L17.8617 7.12613L13.4757 11.022L17.8617 14.9178L16.5352 16.4111L11.9719 12.3578L7.40852 16.4111L6.08209 14.9178L10.4681 11.022L6.08203 7.12613L7.40846 5.63281Z" fill="#FF0000"/>
<path d="M247.5 179.676H72.5C65.5964 179.676 60 185.272 60 192.176C60 199.079 65.5964 204.676 72.5 204.676H247.5C254.404 204.676 260 199.079 260 192.176C260 185.272 254.404 179.676 247.5 179.676Z" fill="#2C3357"/>
<path d="M160 42.077C118.9 40.7828 78.9665 55.8521 48.9678 83.9759C18.969 112.1 1.35737 150.979 0 192.077C1.35737 233.175 18.969 272.054 48.9678 300.178C78.9665 328.302 118.9 343.371 160 342.077C201.1 343.371 241.033 328.302 271.032 300.178C301.031 272.054 318.643 233.175 320 192.077C318.643 150.979 301.031 112.1 271.032 83.9759C241.033 55.8521 201.1 40.7828 160 42.077ZM160 317.077C125.543 318.322 91.9962 305.87 66.6968 282.444C41.3974 259.019 26.4053 226.527 25 192.077C26.4053 157.627 41.3974 125.135 66.6968 101.71C91.9962 78.2842 125.543 65.832 160 67.077C194.457 65.832 228.004 78.2842 253.303 101.71C278.603 125.135 293.595 157.627 295 192.077C293.595 226.527 278.603 259.019 253.303 282.444C228.004 305.87 194.457 318.322 160 317.077Z" fill="#2C3357"/>
</svg>
