<svg width="320" height="354" viewBox="0 0 320 354" fill="none" xmlns="http://www.w3.org/2000/svg">
<path d="M12 0.959961C5.37 0.959961 0 5.90996 0 12C0 18.09 5.37 23.04 12 23.04C18.63 23.04 24 18.09 24 12C24 5.90996 18.63 0.959961 12 0.959961ZM19.185 18.39C18.2495 19.2503 17.1606 19.927 15.975 20.385C13.4156 21.3651 10.5844 21.3651 8.025 20.385C6.83943 19.927 5.75052 19.2503 4.815 18.39C3.91316 17.5859 3.18966 16.602 2.69106 15.5014C2.19246 14.4009 1.92981 13.2081 1.92 12C1.92981 10.7918 2.19246 9.59904 2.69106 8.4985C3.18966 7.39796 3.91316 6.414 4.815 5.60996C5.75052 4.74967 6.83943 4.07291 8.025 3.61496C10.5844 2.63485 13.4156 2.63485 15.975 3.61496C17.1606 4.07291 18.2495 4.74967 19.185 5.60996C20.0868 6.414 20.8103 7.39796 21.3089 8.4985C21.8075 9.59904 22.0702 10.7918 22.08 12C22.0702 13.2081 21.8075 14.4009 21.3089 15.5014C20.8103 16.602 20.0868 17.5859 19.185 18.39Z" fill="#00C566"/>
<path d="M10.56 14.07L7.36501 10.875L6.01501 12.225L10.575 16.785L18.945 8.38502L17.58 7.02002L10.56 14.07Z" fill="#00C566"/>
<line x1="60.2998" y1="34" x2="60.2997" y2="354" stroke="#BABABA" stroke-width="0.6"/>
<line x1="160.3" y1="34" x2="160.3" y2="354" stroke="#BABABA" stroke-width="0.6"/>
<line x1="280.3" y1="34" x2="280.3" y2="354" stroke="#BABABA" stroke-width="0.6"/>
<line x1="20.2998" y1="34" x2="20.2997" y2="354" stroke="#BABABA" stroke-width="0.6"/>
<line x1="120.3" y1="34" x2="120.3" y2="354" stroke="#BABABA" stroke-width="0.6"/>
<line x1="240.3" y1="34" x2="240.3" y2="354" stroke="#BABABA" stroke-width="0.6"/>
<line x1="80.2998" y1="34" x2="80.2997" y2="354" stroke="#BABABA" stroke-width="0.6"/>
<line x1="180.3" y1="34" x2="180.3" y2="354" stroke="#BABABA" stroke-width="0.6"/>
<line x1="300.3" y1="34" x2="300.3" y2="354" stroke="#BABABA" stroke-width="0.6"/>
<line x1="40.2998" y1="34" x2="40.2997" y2="354" stroke="#BABABA" stroke-width="0.6"/>
<line x1="140.3" y1="34" x2="140.3" y2="354" stroke="#BABABA" stroke-width="0.6"/>
<line x1="260.3" y1="34" x2="260.3" y2="354" stroke="#BABABA" stroke-width="0.6"/>
<line x1="100.3" y1="34" x2="100.3" y2="354" stroke="#BABABA" stroke-width="0.6"/>
<line x1="220.3" y1="34" x2="220.3" y2="354" stroke="#BABABA" stroke-width="0.6"/>
<line x1="200.3" y1="34" x2="200.3" y2="354" stroke="#BABABA" stroke-width="0.6"/>
<line x1="320" y1="94.3" x2="-2.63093e-08" y2="94.3" stroke="#BABABA" stroke-width="0.6"/>
<line x1="320" y1="194.3" x2="-2.63093e-08" y2="194.3" stroke="#BABABA" stroke-width="0.6"/>
<line x1="320" y1="314.3" x2="-2.63093e-08" y2="314.3" stroke="#BABABA" stroke-width="0.6"/>
<line x1="320" y1="54.3" x2="-2.63093e-08" y2="54.3" stroke="#BABABA" stroke-width="0.6"/>
<line x1="320" y1="154.3" x2="-2.63093e-08" y2="154.3" stroke="#BABABA" stroke-width="0.6"/>
<line x1="320" y1="274.3" x2="-2.63093e-08" y2="274.3" stroke="#BABABA" stroke-width="0.6"/>
<line x1="320" y1="114.3" x2="-2.63093e-08" y2="114.3" stroke="#BABABA" stroke-width="0.6"/>
<line x1="320" y1="214.3" x2="-2.63093e-08" y2="214.3" stroke="#BABABA" stroke-width="0.6"/>
<line x1="320" y1="334.3" x2="-2.63093e-08" y2="334.3" stroke="#BABABA" stroke-width="0.6"/>
<line x1="320" y1="74.3" x2="-2.63093e-08" y2="74.3" stroke="#BABABA" stroke-width="0.6"/>
<line x1="320" y1="174.3" x2="-2.63093e-08" y2="174.3" stroke="#BABABA" stroke-width="0.6"/>
<line x1="320" y1="294.3" x2="-2.63093e-08" y2="294.3" stroke="#BABABA" stroke-width="0.6"/>
<line x1="320" y1="134.3" x2="-2.63093e-08" y2="134.3" stroke="#BABABA" stroke-width="0.6"/>
<line x1="320" y1="254.3" x2="-2.63093e-08" y2="254.3" stroke="#BABABA" stroke-width="0.6"/>
<line x1="320" y1="234.3" x2="-2.63093e-08" y2="234.3" stroke="#BABABA" stroke-width="0.6"/>
<rect x="0.3" y="34.3" width="319.4" height="319.4" stroke="#BABABA" stroke-width="0.6"/>
<path d="M260 181.676H60V206.676H260V181.676Z" fill="#2C3357"/>
<path d="M160 44.077C118.9 42.7828 78.9665 57.8521 48.9678 85.9759C18.969 114.1 1.35737 152.979 0 194.077C1.35737 235.175 18.969 274.054 48.9678 302.178C78.9665 330.302 118.9 345.371 160 344.077C201.1 345.371 241.033 330.302 271.032 302.178C301.031 274.054 318.643 235.175 320 194.077C318.643 152.979 301.031 114.1 271.032 85.9759C241.033 57.8521 201.1 42.7828 160 44.077ZM160 319.077C125.543 320.322 91.9962 307.87 66.6968 284.444C41.3974 261.019 26.4053 228.527 25 194.077C26.4053 159.627 41.3974 127.135 66.6968 103.71C91.9962 80.2842 125.543 67.832 160 69.077C194.457 67.832 228.004 80.2842 253.303 103.71C278.603 127.135 293.595 159.627 295 194.077C293.595 228.527 278.603 261.019 253.303 284.444C228.004 307.87 194.457 320.322 160 319.077Z" fill="#2C3357"/>
</svg>
