<svg xmlns="http://www.w3.org/2000/svg" width="16" height="16" viewBox="0 0 16 16"><path d="M8 6.24a2.71 2.71 0 00-2.86 2.55A2.71 2.71 0 008 11.34a2.72 2.72 0 002.86-2.55A2.72 2.72 0 008 6.24zm1.17 3.4a1.83 1.83 0 01-2.33 0 1.09 1.09 0 010-1.7 1.83 1.83 0 012.33 0 1.09 1.09 0 010 1.7z"/><path d="M14.4 3.36h-3.16l-.36-1.6H5.12l-.36 1.6H1.6A1.28 1.28 0 00.32 4.64V13a1.28 1.28 0 001.28 1.24h12.8A1.28 1.28 0 0015.68 13V4.64a1.28 1.28 0 00-1.28-1.28zm0 9.6H1.6V4.64h4.19L6.15 3h3.7l.36 1.6h4.19z"/><ellipse cx="12.48" cy="6.49" rx=".64" ry=".57"/></svg>