<svg xmlns="http://www.w3.org/2000/svg" width="16" height="16" viewBox="0 0 16 16"><path d="M8 1.15c-3.71 0-6.72 2.73-6.72 6.08a6.16 6.16 0 00.62 2.56 5.37 5.37 0 01-.18 3.38 1.29 1.29 0 001.22 1.68 1.25 1.25 0 00.72-.23A14.11 14.11 0 005.76 13a6.61 6.61 0 002.24.31c3.71 0 6.72-2.72 6.72-6.08S11.71 1.15 8 1.15zM8 12a5.47 5.47 0 01-1.81-.27l-.77-.27-.57.58a13.29 13.29 0 01-1.91 1.49 6.45 6.45 0 00.16-4.19 5 5 0 01-.53-2.07C2.56 4.59 5 2.43 8 2.43s5.44 2.16 5.44 4.8S11 12 8 12z"/><ellipse cx="8" cy="7.23" rx=".64" ry=".57"/><ellipse cx="6.08" cy="7.23" rx=".64" ry=".57"/><ellipse cx="9.92" cy="7.23" rx=".64" ry=".57"/></svg>