<svg xmlns="http://www.w3.org/2000/svg" width="16" height="16" viewBox="0 0 16 16"><path fill-rule="evenodd" d="M10.53 1.164l3.307 3.328A.555.555 0 0114 4.88v7.217a.554.554 0 01-.55.553h-2.068v1.983a.555.555 0 01-.55.554H2.55a.548.548 0 01-.55-.554V4.09a.555.555 0 01.55-.554h2.068V1.553A.555.555 0 015.168 1h5c.136.01.264.068.361.164zM4.617 4.643h-1.51v9.429l7.2.008v-1.43h-5.14a.548.548 0 01-.55-.553V4.643zm7.5-.316l-1.426-1.434v1.434h1.426zm-6.391-2.22v9.428l7.2.009v-6.11h-2.759A.547.547 0 019.63 5.1a.556.556 0 01-.045-.22V2.106H5.727z"/></svg>