<svg xmlns="http://www.w3.org/2000/svg" width="16" height="16" viewBox="0 0 16 16"><path d="M11.46 5.15a.64.64 0 000 .89c1 1.06.89 4.24.3 6.91a.61.61 0 00.47.74h.14a.62.62 0 00.61-.49c.32-1.41 1.2-6.17-.62-8a.63.63 0 00-.9-.05zM8 4.41a4.56 4.56 0 011.84.38.62.62 0 10.51-1.14A5.72 5.72 0 008 3.16 5.72 5.72 0 004.27 4.5a4.4 4.4 0 00-1.59 3.35 13.66 13.66 0 01-.4 4.4.63.63 0 00.37.8.57.57 0 00.22 0 .62.62 0 00.58-.41 14.09 14.09 0 00.48-4.83C3.93 6 5.76 4.41 8 4.41z"/><path d="M13.51 2.75A8.11 8.11 0 008 .66a8.35 8.35 0 00-3.63.82.62.62 0 00.54 1.12A7.23 7.23 0 018 1.91c3.62 0 6.57 2.67 6.57 5.94a.63.63 0 101.25 0 6.86 6.86 0 00-2.31-5.1zM2.28 3.82a.62.62 0 00-.87.18A6.71 6.71 0 00.18 7.85a.63.63 0 101.25 0 5.58 5.58 0 011-3.16.63.63 0 00-.15-.87zM8 5.66a2.88 2.88 0 00-2.17.79.63.63 0 000 .88.62.62 0 00.89 0A1.78 1.78 0 018 6.92 1.53 1.53 0 019.59 8a11.12 11.12 0 010 2.76 19.7 19.7 0 01-.42 3.26.62.62 0 00.45.76.41.41 0 00.16 0 .62.62 0 00.6-.46 21.41 21.41 0 00.46-3.5 12.51 12.51 0 00-.08-3.21A2.76 2.76 0 008 5.66zM5.73 8.52a.63.63 0 00-.57.68 11.64 11.64 0 01-.65 4.37.63.63 0 00.26.84.59.59 0 00.29.07.63.63 0 00.56-.33 12.68 12.68 0 00.79-5.05.64.64 0 00-.68-.58z"/><path d="M7.9 7.86a.64.64 0 00-.52.72 17.07 17.07 0 01-.62 5.63.62.62 0 00.59.82.63.63 0 00.6-.44 18.64 18.64 0 00.67-6.21.64.64 0 00-.72-.52z"/></svg>