<svg xmlns="http://www.w3.org/2000/svg" width="16" height="16" viewBox="0 0 16 16"><path d="M14.26.79a1.27 1.27 0 00-.67.2 6.35 6.35 0 01-3.1 1.17c-1.7 0-3.73-1-5.77-1a11 11 0 00-3 .42.62.62 0 00-.6-.58.63.63 0 00-.63.63v12.48a.63.63 0 101.25 0V10.8a10.24 10.24 0 013-.42c1.7 0 4.5 1 6.59 1A5.8 5.8 0 0015 10a1.2 1.2 0 00.48-1V2.05A1.25 1.25 0 0014.26.79zm0 8.2a4.63 4.63 0 01-3 1.18 17.32 17.32 0 01-3.36-.53 16.11 16.11 0 00-3.23-.51 12 12 0 00-3 .36V2.84c.18-.06.42-.13.72-.2a9.45 9.45 0 012.26-.27 11.5 11.5 0 012.82.51 11.75 11.75 0 003 .53 7.56 7.56 0 003.77-1.36z"/></svg>