<svg xmlns="http://www.w3.org/2000/svg" width="16" height="16" viewBox="0 0 16 16"><path d="M14.4 3.52h-1.18a2.23 2.23 0 00-2-3.2 4 4 0 00-2.62.92 3.45 3.45 0 00-.6.65 3.45 3.45 0 00-.58-.65A4 4 0 004.8.32a2.23 2.23 0 00-2 3.2H1.6A1.28 1.28 0 00.32 4.8v2.56h1v7c0 .71.89 1.28 1.6 1.28h10.52a1.28 1.28 0 001.28-1.28v-7h1V4.8a1.28 1.28 0 00-1.32-1.28zM8 4.8h.64v9.6H7.36V4.8zm5.44 1.28H9.92V4.8h4.48v1.28h-1zM11.2 1.6a1 1 0 010 1.92H8.7a2.35 2.35 0 012.5-1.92zm-7.36 1a1 1 0 011-1A2.35 2.35 0 017.3 3.52H4.8a1 1 0 01-.96-.96zM1.6 4.8h4.48v1.28H1.6zm1 9.6v-7h3.48v7zm10.88 0H9.92v-7h3.52z"/></svg>