<svg xmlns="http://www.w3.org/2000/svg" width="16" height="16" viewBox="0 0 16 16"><path d="M8 .64C2.1.64 0 4.6 0 8s2.1 7.36 8 7.36 8-4 8-7.36S13.9.64 8 .64zM14.72 8a7 7 0 01-.3 2.11l-2.15-.94a4.36 4.36 0 000-2.34l2.11-.93a7.1 7.1 0 01.34 2.1zm-.87-3.26l-2.1.92a3.67 3.67 0 00-1.46-1.28l.85-1.93a5.29 5.29 0 012.71 2.29zM8 10.92c-3 0-3.25-2.24-3.25-2.92S5 5.08 8 5.08 11.25 7.32 11.25 8 11 10.92 8 10.92zM9.9 2.1L9.06 4A6.87 6.87 0 008 3.9a6.87 6.87 0 00-1.06.1l-.82-1.87A9.36 9.36 0 018 1.92a9.15 9.15 0 011.9.18zm-5 .39l.83 1.89a3.67 3.67 0 00-1.48 1.28l-2.14-.94a5.48 5.48 0 012.77-2.23zM1.28 8a7 7 0 01.3-2.11l2.15.94a4.36 4.36 0 000 2.34l-2.11.93A7.1 7.1 0 011.28 8zm.87 3.26l2.1-.92a3.67 3.67 0 001.46 1.28l-.85 1.93a5.29 5.29 0 01-2.71-2.29zm4 2.64l.79-1.9a6.87 6.87 0 001.06.1 6.87 6.87 0 001.06-.1l.82 1.86a9.36 9.36 0 01-1.88.22 9.15 9.15 0 01-1.9-.18zm5-.39l-.83-1.89a3.67 3.67 0 001.46-1.28l2.14.94a5.48 5.48 0 01-2.8 2.23z"/></svg>