<svg xmlns="http://www.w3.org/2000/svg" width="16" height="16" viewBox="0 0 16 16"><path d="M8 .64C3.58.64 0 3.94 0 8s3.58 7.36 8 7.36 8-3.3 8-7.36S12.42.64 8 .64zm4.79 11.62a6.76 6.76 0 01-2.14 1.33 7.41 7.41 0 01-5.3 0 6.76 6.76 0 01-2.14-1.33A5.77 5.77 0 011.28 8a5.77 5.77 0 011.93-4.26 6.76 6.76 0 012.14-1.33 7.41 7.41 0 015.3 0 6.76 6.76 0 012.14 1.33A5.77 5.77 0 0114.72 8a5.77 5.77 0 01-1.93 4.26z"/><circle cx="8" cy="11.84" r=".96"/><path d="M8 3.48a2.8 2.8 0 00-2.88 2.77h1.29A1.59 1.59 0 018 4.71a1.45 1.45 0 011.56 1.43 2.15 2.15 0 01-1.05 1.61 2.56 2.56 0 00-1.22 1.83v.34h1.3v-.19c0-.58.53-1 1-1.4l.22-.18A2.68 2.68 0 0010.88 6a2.38 2.38 0 00-.81-1.82A3.07 3.07 0 008 3.48z"/></svg>