<svg xmlns="http://www.w3.org/2000/svg" width="16" height="16" viewBox="0 0 16 16"><path d="M13.61 5.76a2.2 2.2 0 00-2.31 1.6H4.7a.88.88 0 000-.15L7 5.41a2.55 2.55 0 001.37.35 2.19 2.19 0 002.39-2.24 2.2 2.2 0 00-2.44-2.24 2.2 2.2 0 00-2.39 2.24 2.39 2.39 0 00.18.92L3.89 6.18a2.57 2.57 0 00-1.5-.42A2.19 2.19 0 000 8a2.19 2.19 0 002.39 2.24 2.53 2.53 0 001.49-.42l2.23 1.74a2.43 2.43 0 00-.18.92 2.2 2.2 0 002.39 2.24 2.24 2.24 0 100-4.48 2.61 2.61 0 00-1.38.35L4.65 8.8a1.42 1.42 0 000-.16h6.6a2.2 2.2 0 002.31 1.6A2.19 2.19 0 0016 8a2.19 2.19 0 00-2.39-2.24zm-5.29-3.2c1 0 1.11.6 1.11 1s-.14 1-1.11 1-1.11-.6-1.11-1 .14-1 1.11-1zM1.28 8c0-.36.14-1 1.11-1s1.12.6 1.12 1-.15 1-1.12 1-1.11-.64-1.11-1zm7 3.52c1 0 1.11.6 1.11 1s-.14 1-1.11 1-1.11-.6-1.11-1 .18-1 1.15-1zM13.61 9c-1 0-1.11-.6-1.11-1s.14-1 1.11-1 1.11.6 1.11 1-.14 1-1.11 1z"/></svg>