<svg xmlns="http://www.w3.org/2000/svg" width="16" height="16" viewBox="0 0 16 16"><path d="M12.16 11.52H4.38l-.23-1.28h7.93a1.28 1.28 0 001.26-1.05L14 5.35a1.29 1.29 0 00-1.26-1.51H3l-.22-1.28H.32v1.28H1.7l1.4 7.79a2 2 0 00-1.5 1.81 2.1 2.1 0 002.24 1.92 2.1 2.1 0 002.24-1.92A1.74 1.74 0 006 12.8h4.1a1.74 1.74 0 00-.13.64 2.1 2.1 0 002.24 1.92 2.1 2.1 0 002.24-1.92 2.1 2.1 0 00-2.29-1.92zm.61-6.4L12.08 9H3.92l-.69-3.88zm-8 8.32c0 .3-.39.64-1 .64s-1-.34-1-.64.39-.64 1-.64c.64 0 1.03.34 1.03.64zm7.36.64c-.57 0-1-.34-1-.64s.39-.64 1-.64 1 .34 1 .64-.4.64-.97.64z"/></svg>