<svg xmlns="http://www.w3.org/2000/svg" width="16" height="16" viewBox="0 0 16 16"><path d="M8 3.19a2.57 2.57 0 00-2.57 2.56V7a2.57 2.57 0 005.14 0V5.75A2.57 2.57 0 008 3.19zM9.28 7a1.28 1.28 0 01-2.56 0V5.75a1.28 1.28 0 112.56 0z"/><path d="M8 .64C3.58.64 0 3.94 0 8s3.58 7.36 8 7.36 8-3.3 8-7.36S12.42.64 8 .64zm0 13.44a7.42 7.42 0 01-2.65-.49 6.68 6.68 0 01-1-.51c.26-.66 1-1.55 3.69-1.55s3.39.78 3.69 1.55a6.68 6.68 0 01-1 .51 7.42 7.42 0 01-2.73.49zm4.79-1.82v.05c-.86-1.67-3-2.06-4.74-2.06s-3.88.38-4.74 2.06v-.05A5.77 5.77 0 011.28 8a5.77 5.77 0 011.93-4.26 6.76 6.76 0 012.14-1.33 7.41 7.41 0 015.3 0 6.76 6.76 0 012.14 1.33A5.77 5.77 0 0114.72 8a5.77 5.77 0 01-1.93 4.26z"/></svg>