<svg width="516" height="1235" fill="none" xmlns="http://www.w3.org/2000/svg"><path fill-rule="evenodd" clip-rule="evenodd" d="M522 459.612c-18.695 4.822-38.298 7.388-58.5 7.388C334.542 467 230 362.458 230 233.5S334.542 0 463.5 0c20.202 0 39.805 2.566 58.5 7.388v1.034C503.309 3.577 483.706 1 463.5 1 335.094 1 231 105.094 231 233.5S335.094 466 463.5 466c20.206 0 39.809-2.578 58.5-7.422v1.034zM515 820.868C467.26 738.444 378.105 683 276 683 123.569 683 0 806.569 0 959c0 152.43 123.569 276 276 276 102.105 0 191.26-55.44 239-137.87v-2.01C467.65 1178.08 378.355 1234 276 1234 124.122 1234 1 1110.88 1 959c0-151.878 123.122-275 275-275 102.355 0 191.65 55.92 239 138.875v-2.007z" fill="#98ECFF" fill-opacity=".25"/><path fill-rule="evenodd" clip-rule="evenodd" d="M515 719.278c-82.449 47.49-138 136.831-138 239.222 0 102.39 55.551 191.73 138 239.22v1.16c-83.024-47.59-139-137.41-139-240.38 0-102.965 55.976-192.785 139-240.375v1.153z" fill="#98ECFF" fill-opacity=".25"/><path d="M437.5 970.5c0 89.47-72.085 162-161 162s-161-72.53-161-162c0-89.473 72.085-162 161-162s161 72.527 161 162z" stroke="#98ECFF" stroke-opacity=".25"/><path fill-rule="evenodd" clip-rule="evenodd" d="M515 883.613c-15.833 25.13-25 54.931-25 86.887 0 31.96 9.167 61.76 25 86.89v-1.89c-15.215-24.69-24-53.81-24-85 0-31.187 8.785-60.309 24-84.996v-1.891zM516 151.938c-16.875-3.885-34.448-5.938-52.5-5.938C334.542 146 230 250.765 230 380s104.542 234 233.5 234c18.052 0 35.625-2.053 52.5-5.938v-1.027c-16.872 3.903-34.445 5.965-52.5 5.965C335.096 613 231 508.684 231 380s104.096-233 232.5-233c18.055 0 35.628 2.062 52.5 5.965v-1.027z" fill="#98ECFF" fill-opacity=".25"/><path fill-rule="evenodd" clip-rule="evenodd" d="M516 133.778C500.461 125.617 482.77 121 464 121c-61.856 0-112 50.144-112 112s50.144 112 112 112c18.77 0 36.461-4.617 52-12.778v-1.131C500.488 339.332 482.789 344 464 344c-61.304 0-111-49.696-111-111s49.696-111 111-111c18.789 0 36.488 4.668 52 12.909v-1.131z" fill="#98ECFF" fill-opacity=".25"/><path fill-rule="evenodd" clip-rule="evenodd" d="M516 280.778C500.461 272.617 482.77 268 464 268c-61.856 0-112 50.144-112 112s50.144 112 112 112c18.77 0 36.461-4.617 52-12.778v-1.131C500.488 486.332 482.789 491 464 491c-61.304 0-111-49.696-111-111s49.696-111 111-111c18.789 0 36.488 4.668 52 12.909v-1.131z" fill="#98ECFF" fill-opacity=".25"/><path stroke="#98ECFF" stroke-opacity=".25" d="M352.5 233v153"/><path fill-rule="evenodd" clip-rule="evenodd" d="M516 657.41v1.002c-138.219-8.612-248.806 13.665-297.833 31.059l-.334-.942C266.974 671.094 377.67 648.8 516 657.41z" fill="#98ECFF" fill-opacity=".25"/></svg>