<svg width="16" height="16" viewBox="0 0 16 16" xmlns="http://www.w3.org/2000/svg">
<path fill-rule="evenodd" clip-rule="evenodd" d="M14.3281 8C14.3281 11.377 11.5672 14.25 8 14.25C4.43281 14.25 1.67188 11.377 1.67188 8C1.67188 4.623 4.43281 1.75 8 1.75C11.5672 1.75 14.3281 4.623 14.3281 8ZM15.5 8C15.5 12.142 12.1419 15.5 8 15.5C3.85812 15.5 0.5 12.142 0.5 8C0.5 3.858 3.85812 0.5 8 0.5C12.1419 0.5 15.5 3.858 15.5 8ZM8.58969 3.101L8.57656 10.401L7.40469 10.399L7.41781 3.099L8.58969 3.101ZM8.60469 12.35C8.60469 12.1776 8.54049 12.0123 8.42621 11.8904C8.31193 11.7685 8.15693 11.7 7.99531 11.7C7.8337 11.7 7.6787 11.7685 7.56442 11.8904C7.45014 12.0123 7.38594 12.1776 7.38594 12.35C7.38594 12.5224 7.45014 12.6877 7.56442 12.8096C7.6787 12.9315 7.8337 13 7.99531 13C8.15693 13 8.31193 12.9315 8.42621 12.8096C8.54049 12.6877 8.60469 12.5224 8.60469 12.35Z"/>
</svg>
