<svg xmlns="http://www.w3.org/2000/svg" width="16" height="16" viewBox="0 0 16 16"><path d="M13.12 6.24a3 3 0 00-2 .79.73.73 0 01-.49.19.34.34 0 01-.34-.34V4.64a1.59 1.59 0 00-1.81-1.76H1.76A1.57 1.57 0 000 4.64v2.24A1.63 1.63 0 001.62 8.5 2.06 2.06 0 003 8a1.72 1.72 0 011.2-.48A1.45 1.45 0 015.76 9a1.48 1.48 0 01-1.6 1.44A1.72 1.72 0 013 9.92a2.06 2.06 0 00-1.34-.5A1.63 1.63 0 000 11v2.24A1.57 1.57 0 001.76 15h6.72a1.59 1.59 0 001.76-1.76V11a.34.34 0 01.34-.34.73.73 0 01.49.19 3 3 0 002 .79 2.72 2.72 0 100-5.44zm0 4.16a1.7 1.7 0 01-1.2-.48 2.06 2.06 0 00-1.34-.5A1.63 1.63 0 009 11v2.19c0 .51-.07.53-.48.53H1.76c-.44 0-.48 0-.48-.48V11a.34.34 0 01.34-.34.73.73 0 01.49.19 3 3 0 002.05.79 2.72 2.72 0 100-5.44 3 3 0 00-2.05.8.73.73 0 01-.49.19.34.34 0 01-.34-.34V4.64c0-.44 0-.48.48-.48h6.72c.41 0 .48 0 .48.53v2.19a1.63 1.63 0 001.62 1.62 2.06 2.06 0 001.34-.5 1.7 1.7 0 011.2-.48A1.45 1.45 0 0114.72 9a1.48 1.48 0 01-1.6 1.4zm-.32-5.6h1.28V3.52h1.28V2.24h-1.28V.96H12.8v1.28h-1.28v1.28h1.28V4.8z"/></svg>