<svg xmlns="http://www.w3.org/2000/svg" width="16" height="16" viewBox="0 0 16 16"><path d="M15.85 6.76L14.6 4.47l-6-3.22a1.2 1.2 0 00-1.16 0l-6 3.22L.15 6.76a1.23 1.23 0 00.5 1.67l.75.4v2a1.24 1.24 0 00.65 1.09l5.37 2.87a1.2 1.2 0 001.16 0L14 11.88a1.24 1.24 0 00.65-1.09v-2l.75-.4a1.23 1.23 0 00.45-1.63zM8 2.33l5.3 2.84L8 8 2.7 5.17zm-6.77 5l.66-1.22L6.33 8.5l-.67 1.22-4.43-2.37zm1.4 2.14l3.53 1.89 1.23-2.23v4.21l-4.76-2.55zm10.74 1.3l-4.76 2.57V9.13l1.23 2.25 3.53-1.89zm1.4-3.44l-4.43 2.39-.67-1.22 4.44-2.37.66 1.22z"/></svg>