<svg xmlns="http://www.w3.org/2000/svg" width="16" height="16" viewBox="0 0 16 16"><path d="M14.4 2.24h-1V1.6a.64.64 0 10-1.28 0v.64H3.86V1.6a.64.64 0 10-1.28 0v.64h-1A1.28 1.28 0 00.32 3.52v10.24A1.28 1.28 0 001.6 15h12.8a1.28 1.28 0 001.28-1.28V3.52a1.28 1.28 0 00-1.28-1.28zM1.6 3.52h12.8V4.8H1.6V3.52zm12.8 10.24H1.6V6.08h12.8v7.68z"/><path d="M3.52 7.36H4.8v1.28H3.52zm0 1.92H4.8v1.28H3.52zm0 1.92H4.8v1.28H3.52zm1.92-3.84h1.28v1.28H5.44zm0 1.92h1.28v1.28H5.44zm0 1.92h1.28v1.28H5.44zm1.92-3.84h1.28v1.28H7.36zm0 1.92h1.28v1.28H7.36zm0 1.92h1.28v1.28H7.36zm1.92-3.84h1.28v1.28H9.28zm0 1.92h1.28v1.28H9.28zm0 1.92h1.28v1.28H9.28zm1.92-3.84h1.28v1.28H11.2zm0 1.92h1.28v1.28H11.2zm0 1.92h1.28v1.28H11.2z"/></svg>