<svg xmlns="http://www.w3.org/2000/svg" width="16" height="16" viewBox="0 0 16 16"><path d="M14.4 2.56H1.6A1.28 1.28 0 00.32 3.84v8.32a1.28 1.28 0 001.28 1.28h12.8a1.28 1.28 0 001.28-1.28V3.84a1.28 1.28 0 00-1.28-1.28zM1.6 3.84h1.58a1.17 1.17 0 01-.41.85 1.76 1.76 0 01-1.17.42zm0 8.32v-1.27a1.76 1.76 0 011.17.42 1.17 1.17 0 01.41.85zm12.8 0h-1.58a1.17 1.17 0 01.41-.85 1.76 1.76 0 011.17-.42zm0-2.55a2.72 2.72 0 00-2.86 2.55H4.46A2.72 2.72 0 001.6 9.61V6.39a2.72 2.72 0 002.86-2.55h7.08a2.72 2.72 0 002.86 2.55zm0-4.5a1.76 1.76 0 01-1.17-.42 1.17 1.17 0 01-.41-.85h1.58z"/><path d="M8 5.44A2.71 2.71 0 005.14 8 2.71 2.71 0 008 10.54 2.72 2.72 0 0010.85 8 2.72 2.72 0 008 5.44zm1.17 3.4a1.83 1.83 0 01-2.33 0 1.09 1.09 0 010-1.7 1.83 1.83 0 012.33 0 1.17 1.17 0 01.4.86 1.17 1.17 0 01-.41.84z"/></svg>