<svg xmlns="http://www.w3.org/2000/svg" width="16" height="16" viewBox="0 0 16 16"><path d="M8 6.68a1.83 1.83 0 011.21.44 1.13 1.13 0 010 1.76 1.88 1.88 0 01-2.42 0 1.13 1.13 0 010-1.76A1.83 1.83 0 018 6.68m0-1.32A2.82 2.82 0 005 8a2.82 2.82 0 003 2.64A2.82 2.82 0 0011 8a2.82 2.82 0 00-3-2.64z"/><path d="M14.2 8.91a4.43 4.43 0 00.09-.9 4.43 4.43 0 00-.09-.9l1.8-1a7.39 7.39 0 00-1.62-2.89 7.61 7.61 0 00-1-1l-1.9 1.1a7.13 7.13 0 00-1.15-.54V.69A8.89 8.89 0 008 .39H7s-.88.19-1.31.3v2.08a7.24 7.24 0 00-1.16.54l-1.9-1.1a7.61 7.61 0 00-1 1A7.39 7.39 0 000 6.05l1.8 1a4.43 4.43 0 00-.09.9 4.43 4.43 0 00.09.9L0 10a7.39 7.39 0 001.62 2.89 7.61 7.61 0 001 .95l1.9-1.1a7.24 7.24 0 001.16.54v2.08a9.61 9.61 0 001.32.2h1a8.89 8.89 0 002.32-.3v-2.03a7.13 7.13 0 001.15-.54l1.9 1.1a7.61 7.61 0 001-.95A7.39 7.39 0 0016 10zm-1 3.25l-1.79-1A5.31 5.31 0 019 12.21v2a8.07 8.07 0 01-1 .07 8.26 8.26 0 01-1-.07v-2a5.31 5.31 0 01-2.42-1.09l-1.79 1a6.08 6.08 0 01-1.16-1.63l1.73-1a3.76 3.76 0 010-3.08l-1.73-1A6.08 6.08 0 012.8 3.84l1.79 1A5.31 5.31 0 017 3.79v-2a8.26 8.26 0 011-.07 8.07 8.07 0 011 .07v2a5.31 5.31 0 012.42 1.09l1.79-1a6.08 6.08 0 011.16 1.63l-1.73 1a3.76 3.76 0 010 3.08l.11.06 1.62.93a6.08 6.08 0 01-1.17 1.58z"/></svg>