<svg xmlns="http://www.w3.org/2000/svg" width="16" height="16" viewBox="0 0 16 16"><path d="M10.1 4.35a.64.64 0 00-.87.24l-3.57 6.18a.63.63 0 00.23.87.62.62 0 00.32.09.65.65 0 00.55-.32l3.58-6.18a.65.65 0 00-.24-.88zM7.37 6.43a2.18 2.18 0 00-2.08-2.26 2.18 2.18 0 00-2.08 2.26 2.17 2.17 0 002.08 2.26 2.17 2.17 0 002.08-2.26zm-2.08 1a.91.91 0 01-.8-1 .91.91 0 01.8-1 .91.91 0 01.8 1 .91.91 0 01-.8.98zm5.42-.13a2.19 2.19 0 00-2.08 2.26 2.18 2.18 0 002.08 2.26 2.17 2.17 0 002.08-2.26 2.18 2.18 0 00-2.08-2.26zm0 3.24a.91.91 0 01-.8-1 .91.91 0 01.8-1 .91.91 0 01.8 1 .91.91 0 01-.8 1z"/><path d="M8 .64C3.58.64 0 3.94 0 8s3.58 7.36 8 7.36 8-3.3 8-7.36S12.42.64 8 .64zm4.79 11.62a6.76 6.76 0 01-2.14 1.33 7.41 7.41 0 01-5.3 0 6.76 6.76 0 01-2.14-1.33A5.77 5.77 0 011.28 8a5.77 5.77 0 011.93-4.26 6.76 6.76 0 012.14-1.33 7.41 7.41 0 015.3 0 6.76 6.76 0 012.14 1.33A5.77 5.77 0 0114.72 8a5.77 5.77 0 01-1.93 4.26z"/></svg>