<svg xmlns="http://www.w3.org/2000/svg" width="16" height="16" viewBox="0 0 16 16"><path d="M4.56 4a2.58 2.58 0 00.4 0l.89 1.51A3.66 3.66 0 017 4.87l-.9-1.49A1.87 1.87 0 006.75 2a2.09 2.09 0 00-2.19-2 2.09 2.09 0 00-2.19 2 2.09 2.09 0 002.19 2zm0-2.67c.51 0 .94.33.94.71s-.43.7-.94.7-.94-.32-.94-.7.43-.76.94-.76z"/><path d="M10.79 7.85a2.24 2.24 0 00-.25-1l1.87-1.33a2.37 2.37 0 001.22.33 2.08 2.08 0 002.19-1.95 2.09 2.09 0 00-2.19-2 2.09 2.09 0 00-2.19 2 1.72 1.72 0 00.14.68L9.7 5.87A3 3 0 008 5.35a2.74 2.74 0 00-2.7 1.88h-.86A2.17 2.17 0 002.37 5.9 2.08 2.08 0 00.18 7.85a2.08 2.08 0 002.19 2 2.18 2.18 0 002.07-1.37h.85A2.77 2.77 0 008 10.34a2.66 2.66 0 002.79-2.49zm2.84-4.69c.51 0 .94.33.94.71s-.43.7-.94.7-.94-.32-.94-.7.43-.71.94-.71zM2.37 8.56c-.51 0-.94-.32-.94-.71s.43-.7.94-.7.94.32.94.7-.43.71-.94.71zm6.76.12A1.71 1.71 0 018 9.09a1.75 1.75 0 01-1.14-.41 1.12 1.12 0 01-.4-.83A1.1 1.1 0 016.85 7 1.7 1.7 0 018 6.6a1.67 1.67 0 011.13.4 1.1 1.1 0 01.4.83 1.12 1.12 0 01-.4.85zm4.5 3.08a2.48 2.48 0 00-.86.16l-2.08-2.16a3.28 3.28 0 01-1 .78l2.06 2.15a1.78 1.78 0 00-.33 1 2.09 2.09 0 002.19 2 2.09 2.09 0 002.19-2 2.09 2.09 0 00-2.17-1.93zm0 2.67c-.51 0-.94-.33-.94-.71s.43-.7.94-.7.94.32.94.7-.43.71-.94.71z"/></svg>