<svg xmlns="http://www.w3.org/2000/svg" width="16" height="16" viewBox="0 0 16 16"><path d="M4.89 2.31a.86.86 0 00-.79.54l-4 10.32h1.37l1-2.67h4.82l1 2.67h1.37l-4-10.32a.86.86 0 00-.77-.54zM3 9.25l1.91-5 1.92 5zm11.73-3a3.28 3.28 0 00-2-.56 3.18 3.18 0 00-2 .61 2.57 2.57 0 00-.93 1.45l1.2.31c.19-.74.78-1.12 1.74-1.12.75 0 1.55.25 1.55 1v.72a8.49 8.49 0 01-.92.13 8.85 8.85 0 00-2.45.52 2 2 0 00-1.4 2.21 1.9 1.9 0 00.88 1.42 2.9 2.9 0 001.59.42 4.56 4.56 0 001.34-.21 3.12 3.12 0 001-.5v.58h1.25V7.9a2 2 0 00-.85-1.65zM13 11.91a2.36 2.36 0 01-1.87-.06.65.65 0 01-.31-.51c0-.37.05-.67.64-.92a7.9 7.9 0 012.1-.42l.74-.1c-.21 1.66-.95 1.89-1.3 2.01z"/></svg>