<svg xmlns="http://www.w3.org/2000/svg" width="16" height="16" viewBox="0 0 16 16"><path d="M8 .66a5.17 5.17 0 00-5.32 5c0 3.13 2.5 3.13 2.5 5v1.88A2.68 2.68 0 008 15.05a2.69 2.69 0 002.83-2.5v-1.88c0-1.88 2.5-1.88 2.5-5A5.17 5.17 0 008 .66zm1.15 12.72A1.74 1.74 0 018 13.8a1.44 1.44 0 01-1.55-1.25v-.63h3.11v.63a1.12 1.12 0 01-.41.83zm2.6-6.33A4.24 4.24 0 0111 8a5.73 5.73 0 00-.88 1 3 3 0 00-.52 1.7H6.44A3 3 0 005.92 9 5.73 5.73 0 005 8a4.24 4.24 0 01-.79-.92 2.67 2.67 0 01-.32-1.39A3.93 3.93 0 018 1.91a3.93 3.93 0 014.07 3.75 2.67 2.67 0 01-.32 1.39z"/><path d="M8 3.16a2.69 2.69 0 00-2.82 2.5.63.63 0 001.26 0 1.12 1.12 0 01.4-.83A1.77 1.77 0 018 4.41a.63.63 0 100-1.25z"/></svg>