<svg xmlns="http://www.w3.org/2000/svg" width="16" height="16" viewBox="0 0 16 16"><path d="M7.7 6.19a1.94 1.94 0 00.53 1.58 2.61 2.61 0 01.71 2.08 3.87 3.87 0 01-1.17 2.45 3.9 3.9 0 01-2.44 1.17 2.65 2.65 0 01-2.08-.72 2.65 2.65 0 01-.72-2.08A3.9 3.9 0 013.7 8.23a3.91 3.91 0 011.51-1A5.16 5.16 0 015.14 6a.17.17 0 000-.07A5.32 5.32 0 002.8 7.32C.92 9.2.72 12 2.34 13.66s4.46 1.42 6.34-.46 2.08-4.71.45-6.33a3.52 3.52 0 00-1.22-.81.15.15 0 00-.21.13z"/><path d="M7.32 2.8c-1.87 1.87-2.08 4.71-.45 6.33a3.52 3.52 0 001.22.81.15.15 0 00.21-.13 1.94 1.94 0 00-.53-1.58 2.61 2.61 0 01-.71-2.08A3.87 3.87 0 018.23 3.7a3.9 3.9 0 012.44-1.17 2.65 2.65 0 012.08.72 2.65 2.65 0 01.72 2.08 3.9 3.9 0 01-1.17 2.44 3.91 3.91 0 01-1.51 1 5.16 5.16 0 01.07 1.23.17.17 0 000 .07 5.32 5.32 0 002.34-1.39c1.88-1.88 2.08-4.71.46-6.34S9.2.92 7.32 2.8z"/></svg>