<svg xmlns="http://www.w3.org/2000/svg" width="16" height="16" viewBox="0 0 16 16"><path d="M14.4 6.57h-1V5.29a.67.67 0 00-.18-.46L9.42 1A.66.66 0 009 .81H3.2a.63.63 0 00-.64.64v5.12h-1A1.28 1.28 0 00.32 7.85v3.84A1.28 1.28 0 001.6 13h1v1.28a.64.64 0 00.64.64h9.6a.64.64 0 00.64-.64V13h1a1.28 1.28 0 001.28-1.28V7.85a1.28 1.28 0 00-1.36-1.28zM8.32 2.1l3.84 3.83v1.28H3.84V2.1zm3.84 11.51H3.84v-1.28h8.32V13zm2.24-1.92h-1v-.64H2.56v.64h-1V7.85h1v.64h10.88v-.64h1z"/><ellipse cx="12.8" cy="9.77" rx=".64" ry=".57"/></svg>