<svg xmlns="http://www.w3.org/2000/svg" width="16" height="16" viewBox="0 0 16 16"><path d="M4.62 8.62H3.38V2.46H2.15v6.16H.92a.92.92 0 00-.92.92v1.84a.93.93 0 00.92.93h1.23v1.23h1.23v-1.23h1.24a.93.93 0 00.92-.93V9.54a.92.92 0 00-.92-.92zm-.31 2.46H1.23V9.85h3.08zm6.46-4.62V4.62a.93.93 0 00-.92-.93H8.62V2.46H7.38v1.23H6.15a.93.93 0 00-.92.93v1.84a.92.92 0 00.92.92h1.23v6.16h1.24V7.38h1.23a.92.92 0 00.92-.92zm-1.23-.31H6.46V4.92h3.08zM15.08 8h-1.23V2.46h-1.23V8h-1.24a.92.92 0 00-.92.92v1.85a.92.92 0 00.92.92h1.24v1.85h1.23v-1.85h1.23a.92.92 0 00.92-.92V8.92a.92.92 0 00-.92-.92zm-.31 2.46h-3.08V9.23h3.08z"/></svg>