<svg xmlns="http://www.w3.org/2000/svg" width="16" height="16" viewBox="0 0 16 16"><path d="M14.17 1h-3.91a1.26 1.26 0 00-1.15.76L8.2 3.88a1.25 1.25 0 00.57 1.61l1.74.89a9.35 9.35 0 01-1.72 2.2 7.08 7.08 0 01-2.59 1.67l-.87-1.6A1.26 1.26 0 004.23 8a1.33 1.33 0 00-.48.1L1.26 9.15a1.25 1.25 0 00-.77 1.16v3.1a1.25 1.25 0 001.25 1.25h.13c2.21-.22 6.6-1 9.55-3.67s3.74-6.55 4-8.62A1.25 1.25 0 0014.17 1zm-.93 5a10.6 10.6 0 01-2.66 4.05A12.32 12.32 0 016 12.56a21.38 21.38 0 01-4.24.85v-3.1l2.47-1.05.88 1.59.49.9 1-.31a5.71 5.71 0 001-.46 8.35 8.35 0 002.08-1.51 10.58 10.58 0 002-2.53l.56-1.1-1.1-.57-1.79-.89.91-2.16h3.91A16.34 16.34 0 0113.24 6z"/></svg>