<svg xmlns="http://www.w3.org/2000/svg" width="16" height="16" viewBox="0 0 16 16"><path d="M14.88 10.76l-3.12-3.12 2.37-2.37a2.36 2.36 0 00.7-1.72 2.37 2.37 0 00-.73-1.71 2.44 2.44 0 00-3.39 0l-2.35 2.4-3.12-3.12a.63.63 0 00-.9 0L1.12 4.34a.63.63 0 000 .9l3.12 3.12-1.51 1.51-.09.1L1 14.07a.71.71 0 00.16.76.75.75 0 00.5.21.86.86 0 00.27 0L6 13.36l1.61-1.6 3.12 3.12a.64.64 0 00.45.18.63.63 0 00.45-.18l3.22-3.22a.63.63 0 00.03-.9zm-10.79-.43l6.51-6.51 1.58 1.58-6.51 6.51zm9.12-7.56a1.17 1.17 0 01.34.79 1.14 1.14 0 01-.33.8l-.13.13-1.58-1.58.11-.11a1.14 1.14 0 011.59-.03zm-10.72 2l2.3-2.3.86.85-1 1 .9.9 1-1 .89.9-2.3 2.3zm.93 6.68l1.11 1.11-1.84.73zm7.79 2l-2.66-2.6 2.3-2.3.9.89-1 1 .9.9 1-1 .85.86z"/></svg>