<svg xmlns="http://www.w3.org/2000/svg" width="16" height="16" viewBox="0 0 16 16"><path d="M8 7.2a.64.64 0 00-.64.64V12a.64.64 0 001.28 0V7.84A.64.64 0 008 7.2zm1.92 0a.64.64 0 00-.64.64V12a.64.64 0 001.28 0V7.84a.64.64 0 00-.64-.64zm-3.84 0a.64.64 0 00-.64.64V12a.64.64 0 001.28 0V7.84a.64.64 0 00-.64-.64z"/><path d="M12 2.08H9.28A1.28 1.28 0 008 .8a1.28 1.28 0 00-1.28 1.28H4a1.27 1.27 0 00-1.3 1.4L3.15 14a1.28 1.28 0 001.28 1.2h7.14a1.28 1.28 0 001.28-1.2l.45-10.52a1.27 1.27 0 00-1.3-1.4zM4 3.36h8v1.28H4V3.36zm.46 10.56l-.35-8h7.84l-.35 8z"/></svg>