<svg xmlns="http://www.w3.org/2000/svg" width="16" height="16" viewBox="0 0 16 16"><path d="M15.4 8.29l-1.9-2.37a1.29 1.29 0 00-1-.48H9.92v-1.6a1.28 1.28 0 00-1.28-1.28h-7A1.28 1.28 0 00.32 3.84v8.32c0 .6.65 1.11 1.28 1.24a2.1 2.1 0 002.24 2 2.1 2.1 0 002.24-1.92h3.84a2.1 2.1 0 002.24 1.92 2.1 2.1 0 002.24-1.92 1.28 1.28 0 001.28-1.28V9.09a1.3 1.3 0 00-.28-.8zM3.84 14.08c-.57 0-1-.34-1-.64s.39-.64 1-.64 1 .34 1 .64-.43.64-1 .64zm4.8-1.92H5.51a2.43 2.43 0 00-1.67-.64 2.43 2.43 0 00-1.67.64H1.6V3.84h7zm1.28-5.44h2.58L14 8.64H9.92zm2.24 7.36c-.57 0-1-.34-1-.64s.39-.64 1-.64 1 .34 1 .64-.44.64-1 .64zm2.24-1.92h-.57a2.5 2.5 0 00-3.34 0h-.57V9.92h4.48v2.24z"/></svg>