<svg xmlns="http://www.w3.org/2000/svg" width="16" height="16" viewBox="0 0 16 16"><path d="M8.23 3.7a3.9 3.9 0 012.44-1.17 2.65 2.65 0 012.08.72 2.65 2.65 0 01.72 2.08 3.9 3.9 0 01-1.17 2.44 4.05 4.05 0 01-1.05.77l.94.94a5.47 5.47 0 001-.8c1.88-1.88 2.08-4.71.46-6.34S9.2.92 7.32 2.8a5.47 5.47 0 00-.8 1l.94.93a4.18 4.18 0 01.77-1.03zm-.46 8.6a3.9 3.9 0 01-2.44 1.17 2.65 2.65 0 01-2.08-.72 2.65 2.65 0 01-.72-2.08A3.9 3.9 0 013.7 8.23a4.05 4.05 0 011-.77l-.94-.94a5.47 5.47 0 00-1 .8C.92 9.2.72 12 2.34 13.66s4.46 1.42 6.34-.46a5.47 5.47 0 00.8-1l-.94-.93a4.18 4.18 0 01-.77 1.03z"/><path d="M7.36.31h1.28V15.7H7.36z"/></svg>