<svg xmlns="http://www.w3.org/2000/svg" width="16" height="16" viewBox="0 0 16 16"><path d="M12.16 8.64A2.24 2.24 0 0014.4 6.4v-1a2.24 2.24 0 00-4.48 0v1a2.24 2.24 0 002.24 2.24zm-1-3.2a1 1 0 111.92 0v1a1 1 0 11-1.92 0zm1 4.16a4.46 4.46 0 00-3 .84 5.9 5.9 0 00-4-1.16C.89 9.28 0 11.37 0 13.12v1h1.28v-1c0-1.1.4-2.56 3.84-2.56S9 12 9 13.12v1h1.28v-1a4 4 0 00-.32-1.63 3 3 0 012.24-.61c2.26 0 2.56.81 2.56 1.6v1.6H16v-1.6c0-2.38-2.09-2.88-3.84-2.88zm-7.04-.96a2.72 2.72 0 002.72-2.72V4.64a2.72 2.72 0 00-5.44 0v1.28a2.72 2.72 0 002.72 2.72zm-1.44-4a1.44 1.44 0 012.88 0v1.28a1.44 1.44 0 01-2.88 0z"/></svg>