<svg xmlns="http://www.w3.org/2000/svg" width="16" height="16" viewBox="0 0 16 16"><path d="M14.57 1.91H1.43A1.25 1.25 0 00.18 3.16v1.11a1.85 1.85 0 011.25-.48v-.63h13.14v.63a1.85 1.85 0 011.25.48V3.16a1.25 1.25 0 00-1.25-1.25zm0 2.5H1.43A1.25 1.25 0 00.18 5.66v1.11a1.85 1.85 0 011.25-.48v-.63h13.14v.63a1.85 1.85 0 011.25.48V5.66a1.25 1.25 0 00-1.25-1.25zm0 2.51h-4.38A2.08 2.08 0 018 8.87a2.08 2.08 0 01-2.19-1.95H1.43A1.25 1.25 0 00.18 8.17v4.38a1.25 1.25 0 001.25 1.25h13.14a1.25 1.25 0 001.25-1.25V8.17a1.25 1.25 0 00-1.25-1.25zm0 5.63H1.43V8.17h3.4a3.06 3.06 0 00.77 1 3.63 3.63 0 004.76 0 3.06 3.06 0 00.77-1h3.4z"/></svg>