<svg width="526" height="1471" fill="none" xmlns="http://www.w3.org/2000/svg"><path fill-rule="evenodd" clip-rule="evenodd" d="M526 618.541c-19.893 5.513-40.852 8.459-62.5 8.459C334.542 627 230 522.458 230 393.5S334.542 160 463.5 160c21.648 0 42.607 2.946 62.5 8.459v1.038C506.113 163.96 485.152 161 463.5 161 335.094 161 231 265.094 231 393.5S335.094 626 463.5 626c21.652 0 42.613-2.96 62.5-8.497v1.038zM513 1260.53C464.797 1341.08 376.696 1395 276 1395c-152.431 0-276-123.57-276-276 0-152.431 123.569-276 276-276 100.696 0 188.797 53.925 237 134.472v1.957C465.164 898.375 376.932 844 276 844 124.122 844 1 967.122 1 1119c0 151.88 123.122 275 275 275 100.932 0 189.164-54.37 237-135.43v1.96z" fill="#98ECFF" fill-opacity=".25"/><path fill-rule="evenodd" clip-rule="evenodd" d="M520.602 1362C434.504 1315.29 376 1223.76 376 1118.5c0-106.24 59.592-198.484 147-244.785v1.132c-86.835 46.214-146 137.983-146 243.653 0 105.55 59.035 197.24 145.713 243.5h-2.111z" fill="#98ECFF" fill-opacity=".25"/><path d="M437.5 1130.5c0 89.47-72.085 162-161 162s-161-72.53-161-162 72.085-162 161-162 161 72.53 161 162z" stroke="#98ECFF" stroke-opacity=".25"/><path fill-rule="evenodd" clip-rule="evenodd" d="M516 1043.9c-15.83 25.03-25 54.74-25 86.6 0 31.86 9.17 61.57 25 86.6v1.85c-16.446-25.45-26-55.83-26-88.45 0-32.62 9.554-63 26-88.45v1.85zM463.5 306c18.052 0 35.625 2.053 52.5 5.938v1.027c-16.872-3.903-34.445-5.965-52.5-5.965C335.096 307 231 411.316 231 540s104.096 233 232.5 233c18.055 0 35.628-2.062 52.5-5.965v1.027c-16.875 3.885-34.448 5.938-52.5 5.938C334.542 774 230 669.235 230 540s104.542-234 233.5-234z" fill="#98ECFF" fill-opacity=".25"/><path fill-rule="evenodd" clip-rule="evenodd" d="M516 293.778C500.461 285.617 482.77 281 464 281c-61.856 0-112 50.144-112 112s50.144 112 112 112c18.77 0 36.461-4.617 52-12.778v-1.131C500.488 499.332 482.789 504 464 504c-61.304 0-111-49.696-111-111s49.696-111 111-111c18.789 0 36.488 4.668 52 12.909v-1.131z" fill="#98ECFF" fill-opacity=".25"/><path fill-rule="evenodd" clip-rule="evenodd" d="M516 440.778C500.461 432.617 482.77 428 464 428c-61.856 0-112 50.144-112 112s50.144 112 112 112c18.77 0 36.461-4.617 52-12.778v-1.131C500.488 646.332 482.789 651 464 651c-61.304 0-111-49.696-111-111s49.696-111 111-111c18.789 0 36.488 4.668 52 12.909v-1.131z" fill="#98ECFF" fill-opacity=".25"/><path stroke="#98ECFF" stroke-opacity=".25" d="M352.5 393v153"/><path stroke="#98ECFF" stroke-opacity=".25" stroke-dasharray="6 6" d="M464.5 0v1471"/><path fill-rule="evenodd" clip-rule="evenodd" d="M516 817.41v1.002c-138.219-8.612-248.806 13.665-297.833 31.059l-.334-.942C266.974 831.094 377.67 808.8 516 817.41z" fill="#98ECFF" fill-opacity=".25"/><path stroke="#98ECFF" stroke-opacity=".25" d="M516 388.5H0M516 270.5H2M516 153.5H3M230 0v1469M114.5 0v1469M516 774.5H0M516 814.5H0M516 910.5H0M516 1296.5H0"/></svg>