<svg width="146" height="36" viewBox="0 0 146 36" fill="none" xmlns="http://www.w3.org/2000/svg">
<path d="M28.48 3C28.448 3 28.448 3 28.448 3C24.256 3 20.288 4.632 17.312 7.544C15.808 6.904 14.144 6.552 12.448 6.552C5.6 6.552 0 12.12 0 19C0 25.88 5.568 31.448 12.448 31.448C14.112 31.448 15.776 31.096 17.28 30.456C20.16 33.272 24.096 35 28.416 35C37.248 35 44.416 27.832 44.416 19C44.448 10.2 37.28 3 28.48 3ZM28.448 31.448C21.6 31.448 16 25.88 16 19H12.448C12.448 22.136 13.344 25.08 14.912 27.544C14.112 27.768 13.28 27.896 12.448 27.896C7.552 27.896 3.552 23.896 3.552 19C3.552 14.104 7.552 10.104 12.448 10.104C14.4 10.104 16.224 10.712 17.792 11.896C20.064 13.592 21.344 16.184 21.344 19H24.928C24.928 15.288 23.328 11.832 20.48 9.464C22.72 7.608 25.536 6.552 28.48 6.552C35.328 6.552 40.928 12.152 40.928 19C40.896 25.848 35.328 31.448 28.448 31.448Z" fill="black"/>
<path d="M53.016 28H56.264V20.776C56.264 18.424 57.552 16.94 59.484 16.94C61.472 16.94 62.536 18.228 62.536 20.356V28H65.784V19.74C65.784 16.156 63.824 13.944 60.464 13.944C58.532 13.944 57.132 14.784 56.264 16.1V14.28H53.016V28ZM73.253 10.276C73.253 9.184 72.385 8.26 71.237 8.26C70.145 8.26 69.249 9.156 69.249 10.276C69.249 11.368 70.145 12.264 71.237 12.264C72.385 12.264 73.253 11.368 73.253 10.276ZM69.641 14.28V28H72.889V14.28H69.641ZM76.9144 28H80.1624V20.72C80.1624 18.368 81.3104 16.912 83.1024 16.912C84.8104 16.912 85.7344 18.172 85.7344 20.3V28H88.9824V20.58C89.0104 18.34 90.1584 16.912 91.9224 16.912C93.6304 16.912 94.5544 18.172 94.5544 20.188V28H97.8024V19.572C97.8024 16.128 95.9824 13.944 92.8184 13.944C90.5504 13.944 88.9824 15.176 88.2544 16.492C87.4984 14.896 86.0704 13.944 84.0824 13.944C82.2064 13.944 80.9184 14.784 80.1624 16.1V14.28H76.9144V28ZM101.661 28H104.881V26.124C105.889 27.552 107.625 28.336 109.529 28.336C113.309 28.336 116.221 25.172 116.221 21.14C116.221 17.024 113.309 13.944 109.529 13.944C107.625 13.944 105.889 14.812 104.881 16.24V8.4H101.661V28ZM112.973 21.14C112.973 23.492 111.181 25.396 108.857 25.396C106.533 25.396 104.741 23.492 104.741 21.14C104.741 18.788 106.533 16.884 108.857 16.884C111.181 16.884 112.973 18.788 112.973 21.14ZM125.288 28.336C129.096 28.336 131.392 26.04 131.392 22.092V14.28H128.144V21.896C128.144 24.052 127.08 25.34 125.288 25.34C123.496 25.34 122.432 24.052 122.432 21.896V14.28H119.184V22.092C119.184 26.04 121.48 28.336 125.288 28.336ZM136.666 23.464L134.034 24.836C134.818 26.964 136.778 28.336 139.354 28.336C142.042 28.336 144.394 26.712 144.394 23.912C144.394 22.092 143.358 20.776 140.782 19.908L139.158 19.376C138.122 19.04 137.618 18.536 137.618 17.892C137.618 17.108 138.346 16.632 139.27 16.632C140.306 16.632 141.118 17.36 141.65 18.452L144.254 17.052C143.386 15.148 141.51 13.944 139.27 13.944C136.694 13.944 134.538 15.568 134.538 18.144C134.538 20.048 135.714 21.364 138.038 22.12L139.69 22.652C140.782 22.988 141.258 23.38 141.258 24.136C141.258 25.116 140.418 25.564 139.41 25.564C138.178 25.564 137.142 24.724 136.666 23.464Z" fill="black"/>
</svg>
