<svg class="{{ include.class }}" alt="{{ include.alt }}" width="146" height="36" fill="none" xmlns="http://www.w3.org/2000/svg"><path d="M28.48 3h-.032c-4.192 0-8.16 1.632-11.136 4.544a12.467 12.467 0 00-4.864-.992C5.6 6.552 0 12.12 0 19c0 6.88 5.568 12.448 12.448 12.448a12.43 12.43 0 004.832-.992A15.888 15.888 0 0028.416 35c8.832 0 16-7.168 16-16 .032-8.8-7.136-16-15.936-16zm-.032 28.448C21.6 31.448 16 25.88 16 19h-3.552c0 3.136.896 6.08 2.464 8.544-.8.224-1.632.352-2.464.352-4.896 0-8.896-4-8.896-8.896 0-4.896 4-8.896 8.896-8.896 1.952 0 3.776.608 5.344 1.792 2.272 1.696 3.552 4.288 3.552 7.104h3.584c0-3.712-1.6-7.168-4.448-9.536 2.24-1.856 5.056-2.912 8-2.912 6.848 0 12.448 5.6 12.448 12.448-.032 6.848-5.6 12.448-12.48 12.448zM53.016 28h3.248v-7.224c0-2.352 1.288-3.836 3.22-3.836 1.988 0 3.052 1.288 3.052 3.416V28h3.248v-8.26c0-3.584-1.96-5.796-5.32-5.796-1.932 0-3.332.84-4.2 2.156v-1.82h-3.248V28zm20.237-17.724a2.007 2.007 0 00-2.016-2.016c-1.092 0-1.988.896-1.988 2.016 0 1.092.896 1.988 1.988 1.988 1.148 0 2.016-.896 2.016-1.988zm-3.612 4.004V28h3.248V14.28h-3.248zM76.914 28h3.248v-7.28c0-2.352 1.148-3.808 2.94-3.808 1.708 0 2.632 1.26 2.632 3.388V28h3.248v-7.42c.028-2.24 1.176-3.668 2.94-3.668 1.708 0 2.632 1.26 2.632 3.276V28h3.248v-8.428c0-3.444-1.82-5.628-4.984-5.628-2.268 0-3.836 1.232-4.564 2.548-.756-1.596-2.184-2.548-4.172-2.548-1.876 0-3.164.84-3.92 2.156v-1.82h-3.248V28zm24.747 0h3.22v-1.876c1.008 1.428 2.744 2.212 4.648 2.212 3.78 0 6.692-3.164 6.692-7.196 0-4.116-2.912-7.196-6.692-7.196-1.904 0-3.64.868-4.648 2.296V8.4h-3.22V28zm11.312-6.86c0 2.352-1.792 4.256-4.116 4.256s-4.116-1.904-4.116-4.256c0-2.352 1.792-4.256 4.116-4.256s4.116 1.904 4.116 4.256zm12.315 7.196c3.808 0 6.104-2.296 6.104-6.244V14.28h-3.248v7.616c0 2.156-1.064 3.444-2.856 3.444-1.792 0-2.856-1.288-2.856-3.444V14.28h-3.248v7.812c0 3.948 2.296 6.244 6.104 6.244zm11.378-4.872l-2.632 1.372c.784 2.128 2.744 3.5 5.32 3.5 2.688 0 5.04-1.624 5.04-4.424 0-1.82-1.036-3.136-3.612-4.004l-1.624-.532c-1.036-.336-1.54-.84-1.54-1.484 0-.784.728-1.26 1.652-1.26 1.036 0 1.848.728 2.38 1.82l2.604-1.4c-.868-1.904-2.744-3.108-4.984-3.108-2.576 0-4.732 1.624-4.732 4.2 0 1.904 1.176 3.22 3.5 3.976l1.652.532c1.092.336 1.568.728 1.568 1.484 0 .98-.84 1.428-1.848 1.428-1.232 0-2.268-.84-2.744-2.1z" fill="#F2F2F2"/></svg>