<svg width="16" height="16" fill="none" xmlns="http://www.w3.org/2000/svg"><circle cx="8" cy="8" r="8" fill="#98ECFF"/><path d="M9.412 4h-.007c-.944 0-1.837.357-2.507.994a2.878 2.878 0 00-1.095-.217C4.26 4.777 3 5.995 3 7.5s1.254 2.723 2.803 2.723c.374 0 .749-.077 1.087-.217A3.632 3.632 0 009.398 11C11.386 11 13 9.432 13 7.5 13.007 5.575 11.393 4 9.412 4zm-.007 6.223c-1.542 0-2.803-1.218-2.803-2.723h-.8c0 .686.202 1.33.555 1.869a2.12 2.12 0 01-.554.077C4.7 9.446 3.8 8.571 3.8 7.5s.9-1.946 2.003-1.946c.44 0 .85.133 1.203.392.511.371.8.938.8 1.554h.806c0-.812-.36-1.568-1.001-2.086a2.875 2.875 0 011.801-.637c1.542 0 2.803 1.225 2.803 2.723-.008 1.498-1.261 2.723-2.81 2.723z" fill="#111424"/></svg>